<?xml version="1.0" encoding="UTF-8"?>
<svg version="1.1" xmlns="http://www.w3.org/2000/svg" width="792" height="792">
<path d="M0 0 C261.36 0 522.72 0 792 0 C792 261.36 792 522.72 792 792 C530.64 792 269.28 792 0 792 C0 530.64 0 269.28 0 0 Z " fill="#010101" transform="translate(0,0)"/>
<path d="M0 0 C1.31000977 -0.0299707 1.31000977 -0.0299707 2.64648438 -0.06054688 C9.84403327 -0.05517156 14.96105593 1.66736835 20.51953125 6.26171875 C21.04933594 6.87660156 21.57914063 7.49148438 22.125 8.125 C22.66769531 8.72699219 23.21039063 9.32898438 23.76953125 9.94921875 C27.32219581 15.67845248 28.50533139 22.04589238 29.48730469 28.62939453 C30.64027461 36.25329583 30.64027461 36.25329583 34.23046875 42.90625 C36.82690432 44.75028464 39.43431431 46.07337896 42.3125 47.4375 C43.50060497 48.12985864 44.68122642 48.83516343 45.85546875 49.55078125 C55.88224853 55.59428463 66.41028383 60.216423 77.3125 64.4375 C78.46234375 64.88738281 79.6121875 65.33726562 80.796875 65.80078125 C93.04646862 70.21466064 105.87909566 72.92049979 118.59375 75.64160156 C120.87481056 76.12980124 123.15398665 76.6270454 125.4296875 77.13964844 C156.0676655 83.87543696 192.80581421 83.72294674 223.3125 76.4375 C224.10269531 76.25558105 224.89289063 76.07366211 225.70703125 75.88623047 C251.92150479 69.6396385 280.06524458 55.1119731 295.0625 32.0625 C298.16465927 26.88726313 300.97478755 21.55193168 303.734375 16.1875 C305.1116102 13.78756539 306.1214919 12.09769686 308.3125 10.4375 C314.22204774 9.80433417 314.22204774 9.80433417 317.25 11.5625 C318.82471114 14.34140201 318.5755714 16.25841187 318.3125 19.4375 C317.28636681 22.07449031 316.23686846 24.4451887 314.9375 26.9375 C314.57809326 27.63528564 314.21868652 28.33307129 313.84838867 29.05200195 C297.80774117 59.33880314 270.17400697 77.40057886 238.09375 87.75 C229.2955884 90.41897251 220.38828374 92.05369749 211.3125 93.4375 C210.01570312 93.66179687 208.71890625 93.88609375 207.3828125 94.1171875 C197.31054003 95.62081918 187.22564077 95.61679465 177.0625 95.625 C176.32277954 95.62608765 175.58305908 95.62717529 174.82092285 95.6282959 C172.68780452 95.62794064 170.55494869 95.61876331 168.421875 95.60546875 C167.17374023 95.59797607 165.92560547 95.5904834 164.63964844 95.58276367 C161.73589653 95.45598554 159.13274476 95.1090666 156.3125 94.4375 C155.1477751 100.66937857 156.43550473 105.53159701 159.8918457 110.7097168 C167.20212181 120.01019744 174.96486187 124.59722572 186.60705566 126.20635986 C193.88975102 127.02497733 201.16821571 127.27531326 208.49265671 127.30198288 C210.21125009 127.30901625 211.92983145 127.32659193 213.64821243 127.35451126 C236.42424933 127.72296718 254.10121126 125.38030113 270.96694756 109.171772 C278.92396587 101.21195583 286.10746528 92.45447567 292.72241211 83.36303711 C293.91847475 81.72072998 295.11512118 80.07884777 296.3125 78.4375 C296.83140808 77.71893326 297.35031616 77.00036652 297.88494873 76.26002502 C300.36159723 73.06352609 301.57137503 71.63955922 305.56396484 70.55102539 C306.70559082 70.54578857 307.8472168 70.54055176 309.0234375 70.53515625 C310.88935547 70.50131836 310.88935547 70.50131836 312.79296875 70.46679688 C314.72076172 70.48323242 314.72076172 70.48323242 316.6875 70.5 C317.99589844 70.48388672 319.30429687 70.46777344 320.65234375 70.45117188 C323.87346172 70.41590416 327.09137977 70.41239954 330.3125 70.4375 C333.40295801 62.65416017 335.46347573 54.96134161 337.0625 46.75 C337.28292969 45.65494141 337.50335937 44.55988281 337.73046875 43.43164062 C338.26545297 40.76834963 338.79265722 38.10378002 339.3125 35.4375 C337.40147304 35.50974591 335.49138439 35.607075 333.58203125 35.71484375 C331.98645386 35.79206665 331.98645386 35.79206665 330.35864258 35.87084961 C325.08259672 36.85231169 322.53160988 40.39407059 319.3125 44.4375 C318.27662619 45.65080307 317.23491315 46.85914445 316.1875 48.0625 C315.34638672 49.03896484 315.34638672 49.03896484 314.48828125 50.03515625 C311.54442739 53.28555144 308.47060341 56.39457188 305.375 59.5 C304.80185059 60.07766113 304.22870117 60.65532227 303.63818359 61.25048828 C300.61442796 64.263991 297.52879079 67.14498533 294.2890625 69.92578125 C291.1042618 72.68201331 288.18856315 75.56434955 285.35424805 78.67773438 C284.13957144 80.00165128 282.89736803 81.30058158 281.63598633 82.58007812 C277.76143736 86.5462016 274.62162577 90.42153029 271.7109375 95.1484375 C267.03433297 101.94254574 262.32677446 107.80633835 254.3125 110.4375 C235.61444342 113.73080791 215.13394601 111.72824007 196.3125 110.4375 C196.044375 111.22125 195.77625 112.005 195.5 112.8125 C194.3125 115.4375 194.3125 115.4375 191.3125 117.4375 C187.10071757 117.90547583 185.02650886 117.90315795 181.4375 115.5625 C178.53878658 112.66378658 178.35516671 111.80930992 177.875 107.625 C177.92272583 103.8819314 178.26968674 103.48642944 180.9375 100.4375 C184.64711149 98.23921171 186.11191047 97.56237718 190.3125 98.4375 C192.68299009 99.90958517 194.3074905 101.4324905 196.3125 103.4375 C196.3125 104.0975 196.3125 104.7575 196.3125 105.4375 C203.92614216 105.59978793 211.53649851 105.66655444 219.15185547 105.66943359 C221.73765723 105.68137949 224.32345698 105.71455367 226.90869141 105.77001953 C243.08591587 106.82880266 243.08591587 106.82880266 257.19024658 100.44769287 C258.99922022 98.46667528 260.60854025 96.3735938 262.11253357 94.15246582 C270.27794514 82.4826379 281.63220249 72.42930132 291.5717535 62.26712036 C294.73486831 59.03161373 297.8806851 55.78251347 300.99145508 52.49658203 C304.02443011 49.29376254 307.09578304 46.13271824 310.19702339 42.9960022 C311.36206806 41.80414702 312.51323368 40.59854148 313.64900017 39.37875366 C322.96157966 29.40851818 322.96157966 29.40851818 329.70388794 28.71679688 C333.63051092 28.59050916 337.42360494 28.90744977 341.3125 29.4375 C341.35375 28.2 341.395 26.9625 341.4375 25.6875 C342.25974954 18.55758277 345.22625601 11.51189661 350.34765625 6.41015625 C352.28668177 4.92779842 354.1867876 3.63375111 356.3125 2.4375 C356.91618408 2.09130615 357.51986816 1.7451123 358.1418457 1.38842773 C362.04528129 -0.32160282 366.17445939 0.11007271 370.375 0.125 C371.28572266 0.10888672 372.19644531 0.09277344 373.13476562 0.07617188 C374.00939453 0.07552734 374.88402344 0.07488281 375.78515625 0.07421875 C376.58187744 0.07123779 377.37859863 0.06825684 378.19946289 0.06518555 C380.85569314 0.53320994 381.73189114 1.27641167 383.3125 3.4375 C383.95356005 9.4207271 383.95356005 9.4207271 382.24609375 12.12890625 C378.46282034 14.6893034 373.5024685 13.86750047 369.07421875 13.93359375 C364.77061119 14.51008947 362.65459124 15.71742278 359.3125 18.4375 C356.88113368 22.08454948 356.36999552 25.54795707 355.61328125 29.77734375 C355.29250482 31.48843859 354.97085719 33.19937029 354.6484375 34.91015625 C354.48182617 35.8036377 354.31521484 36.69711914 354.14355469 37.61767578 C348.52561067 67.49011447 348.52561067 67.49011447 342.3125 81.4375 C342.00344727 82.13584961 341.69439453 82.83419922 341.37597656 83.55371094 C330.27471594 108.08918745 312.91974002 131.26158807 291.3125 147.4375 C290.53036133 148.03208008 290.53036133 148.03208008 289.73242188 148.63867188 C252.49927663 176.81629419 206.62539257 188.15652548 160.3125 182.4375 C126.88380998 177.74206555 94.85006972 162.60680375 70.3125 139.4375 C69.0895518 138.40922519 67.86089767 137.38767386 66.625 136.375 C62.76212494 133.06780534 59.5399062 129.35829425 56.3125 125.4375 C55.4875 124.45007813 54.6625 123.46265625 53.8125 122.4453125 C35.32416534 99.90848609 23.12552391 73.27687264 17.796875 44.61328125 C17.66815506 43.92358749 17.53943512 43.23389374 17.40681458 42.52330017 C16.76071788 39.0323758 16.13829355 35.53887499 15.54370117 32.03881836 C15.19529175 30.0937439 15.19529175 30.0937439 14.83984375 28.109375 C14.54194946 26.36285645 14.54194946 26.36285645 14.23803711 24.58105469 C13.20054123 21.05723591 11.82251248 19.09093313 9.3125 16.4375 C5.563388 14.562944 0.69113317 15.14760747 -3.47851562 15.09570312 C-9.19403124 14.88401736 -9.19403124 14.88401736 -11.69921875 12.6171875 C-13.15273527 9.41140798 -13.06587284 6.90591772 -12.6875 3.4375 C-9.42892971 -0.9647858 -5.02317935 -0.03989529 0 0 Z " fill="#F5F5F5" transform="translate(209.6875,337.5625)"/>
<path d="M0 0 C1.34750117 -0.00542515 2.6949964 -0.01255003 4.04248047 -0.02124023 C7.69145498 -0.0394337 11.33997572 -0.03242192 14.98895788 -0.01972389 C18.81557754 -0.00957127 22.64215928 -0.01899622 26.46878052 -0.02526855 C32.89624985 -0.03254017 39.32353519 -0.02297198 45.75097656 -0.00390625 C53.16852305 0.01784318 60.58562938 0.01082346 68.00316513 -0.01121187 C74.38301433 -0.02940199 80.7627315 -0.03190607 87.14259827 -0.0214572 C90.94792074 -0.01523964 94.75303681 -0.01433804 98.55834579 -0.02760315 C102.13888238 -0.03921322 105.71885554 -0.03104315 109.29933167 -0.00802612 C111.23003376 -0.00026857 113.16078386 -0.0120522 115.09146118 -0.02453613 C123.50365169 0.05701544 129.13165499 0.96626006 135.24647522 6.92199707 C137.64202284 12.54667289 137.3249775 17.99622607 137.27954102 24.046875 C137.28332728 25.4271754 137.28882986 26.80747199 137.2959137 28.1877594 C137.30984579 31.92545347 137.2987147 35.66268606 137.28220248 39.40035439 C137.26832409 43.3173214 137.27481523 47.23426237 137.27833557 51.15124512 C137.2810355 57.72834689 137.26758092 64.30526593 137.24438477 70.88232422 C137.21777632 78.47935157 137.2160287 86.07607348 137.22777313 93.67313147 C137.2385636 100.99022156 137.23235391 108.30720148 137.21821785 115.62428284 C137.21246903 118.73420322 137.21253202 121.8440427 137.21728325 124.95396423 C137.22206619 128.61813792 137.21189729 132.28197844 137.1903286 135.94608879 C137.18213705 137.92726425 137.18859884 139.90848341 137.19552612 141.8896637 C137.18562149 143.07563644 137.17571686 144.26160919 137.16551208 145.48352051 C137.16186724 147.02320873 137.16186724 147.02320873 137.15814877 148.59400177 C136.53468685 153.38668731 134.78305646 156.61042437 131.21533203 159.83007812 C127.74535525 162.23236974 125.9167954 162.6594636 121.734375 162.75805664 C120.67550079 162.78344009 119.61662659 162.80882355 118.52566528 162.8349762 C112.2347802 162.94535269 105.94459184 163.03949506 99.65283203 163.08007812 C98.99088333 163.08435822 98.32893463 163.08863831 97.64692688 163.0930481 C76.02382578 163.20586971 57.23696214 161.76931553 36.77783203 154.51757812 C34.74775479 153.86029902 32.71653912 153.20652341 30.68408203 152.55664062 C13.79197416 146.96311379 -2.95416356 139.25191789 -17.22216797 128.51757812 C-18.24853363 127.87735214 -19.27489929 127.23712616 -20.33236694 126.57749939 C-22.36757289 124.85472347 -23.13081301 123.88656874 -23.77724075 121.2755909 C-23.99094034 118.39250137 -24.0097355 115.56296608 -23.96679688 112.67211914 C-23.97409821 111.57887329 -23.98139954 110.48562744 -23.98892212 109.35925293 C-24.00513179 105.74603088 -23.97791615 102.13460345 -23.94873047 98.52148438 C-23.94769314 96.00951641 -23.94872902 93.4975468 -23.95175171 90.98558044 C-23.95157227 85.72057086 -23.93139465 80.45602492 -23.89453125 75.19116211 C-23.85221932 69.113534 -23.84517205 63.03666181 -23.85765517 56.95891625 C-23.86906652 51.1020804 -23.85751127 45.2455139 -23.83530807 39.38871574 C-23.82761241 36.90124517 -23.8253042 34.41375189 -23.82847977 31.92627144 C-23.82922211 28.44788581 -23.80395367 24.97064513 -23.77148438 21.49243164 C-23.77643921 20.46522507 -23.78139404 19.43801849 -23.78649902 18.37968445 C-23.70064325 12.61245854 -23.27586112 8.95817412 -19.22216797 4.51757812 C-13.67383862 -0.84540403 -7.2602868 -0.04679437 0 0 Z " fill="#070706" transform="translate(265.22216796875,243.482421875)"/>
<path d="M0 0 C3.90410574 3.40294478 6.52744893 7.16429089 9.0625 11.625 C9.85207651 12.97648372 10.64384925 14.32668607 11.4375 15.67578125 C11.85386719 16.38428223 12.27023437 17.0927832 12.69921875 17.82275391 C14.91500006 21.531526 17.24130629 25.16912208 19.5625 28.8125 C25.19198828 37.67194733 30.71088039 46.59725905 36.18188477 55.55541992 C39.13974078 60.39192875 42.10720813 65.209477 45.2421875 69.93359375 C45.95157471 71.0150769 45.95157471 71.0150769 46.67529297 72.1184082 C47.52094117 73.3993486 48.38066456 74.67118053 49.25830078 75.93041992 C52.29660549 80.56227361 52.69120538 83.63235822 52 89 C49.42772337 92.80695471 46.75084994 95.07424853 42.8359375 97.42578125 C41.80927979 98.04936523 40.78262207 98.67294922 39.72485352 99.31542969 C38.61940186 99.97446289 37.5139502 100.63349609 36.375 101.3125 C35.21285443 102.01494915 34.05132482 102.71841827 32.89038086 103.42285156 C30.47440909 104.88765188 28.05584399 106.34802075 25.63525391 107.80517578 C19.92131792 111.24923636 14.24289417 114.75096166 8.5625 118.25 C7.47372559 118.91942627 6.38495117 119.58885254 5.26318359 120.27856445 C-1.7733718 124.61002145 -8.77225504 128.99647935 -15.74658203 133.42724609 C-22.39548102 137.64165559 -29.10128355 141.76074315 -35.8125 145.875 C-43.98525022 150.8860033 -52.11485459 155.95429551 -60.1875 161.125 C-67.99501871 166.11859031 -75.84712168 171.03358597 -83.75 175.875 C-84.74539795 176.48875488 -85.7407959 177.10250977 -86.76635742 177.73486328 C-88.14271362 178.57380127 -88.14271362 178.57380127 -89.546875 179.4296875 C-90.35995117 179.92710449 -91.17302734 180.42452148 -92.01074219 180.93701172 C-94 182 -94 182 -96 182 C-96 176.06 -96 170.12 -96 164 C-94.494375 163.443125 -92.98875 162.88625 -91.4375 162.3125 C-81.22331413 158.15489476 -75.7137196 152.27452133 -70.671875 142.3984375 C-66.6724857 132.85059967 -66.51682257 122.1378142 -69.96484375 112.37109375 C-74.98510357 100.8718571 -81.74360776 93.84904503 -93.33984375 89 C-105.14053347 84.56391106 -115.35364571 85.15568821 -127 90 C-136.95572195 95.40922995 -142.84410791 102.920062 -147.03125 113.34765625 C-149.00415788 120.78583715 -148.83569562 128.33246244 -149 136 C-156.92 136 -164.84 136 -173 136 C-176.0009375 130.9571875 -176.0009375 130.9571875 -179.0625 125.8125 C-180.01588257 124.23625854 -180.01588257 124.23625854 -180.98852539 122.62817383 C-181.47828857 121.78794678 -181.96805176 120.94771973 -182.47265625 120.08203125 C-182.98062744 119.22843018 -183.48859863 118.3748291 -184.01196289 117.49536133 C-185.23680422 114.4019333 -185.23152653 113.08671667 -184 110 C-180.87154747 107.04970926 -177.33292106 104.86669902 -173.66796875 102.63671875 C-172.63462402 102.00499756 -171.6012793 101.37327637 -170.53662109 100.72241211 C-168.87880615 99.71513062 -168.87880615 99.71513062 -167.1875 98.6875 C-164.82840208 97.24646547 -162.47088952 95.80284503 -160.11328125 94.359375 C-159.51596191 93.99408188 -158.91864258 93.62878876 -158.30322266 93.25242615 C-152.47129191 89.6834225 -146.66960762 86.06676184 -140.875 82.4375 C-139.40389771 81.51650513 -139.40389771 81.51650513 -137.90307617 80.5769043 C-135.92447962 79.33782425 -133.94604474 78.09848599 -131.96777344 76.85888672 C-126.98095448 73.73535599 -121.9902959 70.6179716 -117 67.5 C-110.96387966 63.72810159 -104.92823514 59.95545045 -98.89453125 56.1796875 C-88.58719715 49.73099642 -78.26852455 43.30171751 -67.92626953 36.90917969 C-57.25966668 30.31206751 -46.63153662 23.65341253 -36 17 C-31.60452193 14.24943164 -27.2086203 11.49954177 -22.8125 8.75 C-21.29789185 7.80181396 -21.29789185 7.80181396 -19.75268555 6.83447266 C-18.80949463 6.24456543 -17.86630371 5.6546582 -16.89453125 5.046875 C-16.06800049 4.52963867 -15.24146973 4.01240234 -14.38989258 3.47949219 C-13.20689575 2.74714355 -13.20689575 2.74714355 -12 2 C-10.71935669 1.1632373 -10.71935669 1.1632373 -9.4128418 0.30957031 C-5.87876618 -1.60854986 -3.80773108 -1.08792317 0 0 Z " fill="#F9FAF9" transform="translate(507,99)"/>
<path d="M0 0 C1.90625 1.8359375 1.90625 1.8359375 3.5 4.375 C4.0775 5.28378906 4.655 6.19257813 5.25 7.12890625 C5.8275 8.07636719 6.405 9.02382812 7 10 C7.598125 10.89589844 8.19625 11.79179687 8.8125 12.71484375 C13.06109011 19.25491881 13.06109011 19.25491881 12.78125 22.66796875 C12 25 12 25 10 27 C9.66666667 29.5 9.66666667 29.5 10 32 C10.66 32.66 11.32 33.32 12 34 C13.58756946 33.91148444 15.17180579 33.75618747 16.75 33.5625 C19.4453125 33.484375 19.4453125 33.484375 22 34 C24.75721289 36.6166491 26.51758142 39.51089284 28 43 C28 43.99 28 44.98 28 46 C27.319375 46.61875 26.63875 47.2375 25.9375 47.875 C25.298125 48.57625 24.65875 49.2775 24 50 C24.16150205 53.39154295 24.58296757 54.58296757 27 57 C29.22128555 57.02308597 29.22128555 57.02308597 31.625 56.625 C32.44226563 56.51414062 33.25953125 56.40328125 34.1015625 56.2890625 C34.72804688 56.19367188 35.35453125 56.09828125 36 56 C36.45890625 56.72445312 36.9178125 57.44890625 37.390625 58.1953125 C38.00421875 59.16210938 38.6178125 60.12890625 39.25 61.125 C39.88550781 62.13175781 40.52101563 63.13851562 41.17578125 64.17578125 C42.53935266 66.28683506 43.94172122 68.29832858 45.4375 70.3125 C47.39771341 73.68406707 47.95454038 75.1818385 47 79 C42.07094542 83.58525938 35.9535576 87.03040572 30.25 90.5625 C23.55848677 94.74526952 16.91447706 98.98985585 10.3125 103.3125 C1.631183 108.98801277 -7.14496423 114.50387489 -15.95581055 119.97583008 C-16.91656494 120.57290771 -17.87731934 121.16998535 -18.8671875 121.78515625 C-19.7653418 122.34090332 -20.66349609 122.89665039 -21.58886719 123.46923828 C-23.61376247 124.75478844 -25.56082506 126.09778101 -27.5078125 127.49609375 C-28.74144531 128.24052734 -28.74144531 128.24052734 -30 129 C-33.62351253 127.79216249 -34.15215236 126.70346858 -36.1875 123.5625 C-36.71730469 122.75941406 -37.24710937 121.95632813 -37.79296875 121.12890625 C-39 119 -39 119 -39 117 C-40.65 117.66 -42.3 118.32 -44 119 C-43.20259585 122.75199638 -41.64882936 125.74362955 -39.83984375 129.09765625 C-39 131 -39 131 -39 134 C-41.34178843 135.821391 -42.93571633 137.0570152 -45.96875 136.89453125 C-48.90966824 135.5993961 -49.70617932 133.70935986 -51.25 130.9375 C-52.03117187 129.55884766 -52.03117187 129.55884766 -52.828125 128.15234375 C-53.21484375 127.44207031 -53.6015625 126.73179687 -54 126 C-55.32 126.33 -56.64 126.66 -58 127 C-57.17854148 131.14506081 -55.19877641 134.2836419 -53.05859375 137.87890625 C-52 140 -52 140 -52 143 C-54.08520508 144.61889648 -54.08520508 144.61889648 -57.01953125 146.37109375 C-58.09493164 147.02158691 -59.17033203 147.67208008 -60.27832031 148.34228516 C-61.45637126 149.04070519 -62.63443137 149.73910978 -63.8125 150.4375 C-65.01346572 151.16066874 -66.21365671 151.88512557 -67.41308594 152.61083984 C-69.82164495 154.06778967 -72.23253844 155.52074669 -74.64501953 156.97119141 C-79.04884122 159.63425051 -83.40649014 162.36499242 -87.75 165.125 C-88.48943848 165.59357422 -89.22887695 166.06214844 -89.99072266 166.54492188 C-92.32852232 168.02779803 -94.66449348 169.51351496 -97 171 C-97.92925293 171.59119629 -98.85850586 172.18239258 -99.81591797 172.79150391 C-105.63026187 176.49093041 -105.63026187 176.49093041 -111.44238281 180.19384766 C-113.15967952 181.28826587 -114.87852461 182.38025933 -116.59912109 183.46948242 C-118.1678155 184.46949719 -119.72850536 185.48221157 -121.27978516 186.5090332 C-122.32658447 187.19292114 -122.32658447 187.19292114 -123.39453125 187.890625 C-124.29909058 188.49245605 -124.29909058 188.49245605 -125.22192383 189.10644531 C-128.21877603 190.61248391 -130.71300032 190.3423958 -134 190 C-133.125 185.25 -133.125 185.25 -132 183 C-131.84254174 179.9395806 -131.74133123 176.898581 -131.68359375 173.8359375 C-131.66281265 172.92872955 -131.64203156 172.02152161 -131.62062073 171.08682251 C-131.55512865 168.1829602 -131.49624186 165.27900595 -131.4375 162.375 C-131.39431445 160.40884458 -131.35070015 158.44269853 -131.30664062 156.4765625 C-131.19944761 151.65113638 -131.09817919 146.8256176 -131 142 C-130.34 142 -129.68 142 -129 142 C-127.375 144.5 -127.375 144.5 -126 147 C-120.01780165 145.45557624 -115.35153578 142.22166959 -110.25 138.875 C-108.54949551 137.76420708 -106.84649194 136.65722748 -105.140625 135.5546875 C-104.39329102 135.06468262 -103.64595703 134.57467773 -102.87597656 134.06982422 C-101 133 -101 133 -99 133 C-104.45600084 123.16315143 -110.31483406 113.63452415 -116.36328125 104.15234375 C-118.29136555 101.12944818 -120.17889333 98.08904442 -122 95 C-125.96 95.99 -125.96 95.99 -130 97 C-130.24432377 93.95349368 -130.42155414 90.92658981 -130.5625 87.875 C-130.63791016 87.0190625 -130.71332031 86.163125 -130.79101562 85.28125 C-130.88351389 82.60907779 -130.79530492 80.55746745 -130 78 C-127.39007516 75.299188 -124.29457041 73.75083401 -121 72 C-119.23086534 70.89854157 -117.46934619 69.78477586 -115.71484375 68.66015625 C-113.78990281 67.45958913 -111.8640821 66.26043173 -109.9375 65.0625 C-107.80727861 63.73439595 -105.67707066 62.40627033 -103.546875 61.078125 C-102.46341797 60.40330078 -101.37996094 59.72847656 -100.26367188 59.03320312 C-95.0690577 55.79706108 -89.87792142 52.55536136 -84.6875 49.3125 C-83.68799316 48.68819092 -82.68848633 48.06388184 -81.65869141 47.4206543 C-75.53140233 43.59072201 -69.41710193 39.74096993 -63.3125 35.875 C-55.86093051 31.15622585 -48.36882084 26.50570103 -40.86376953 21.87255859 C-33.27698773 17.18390769 -25.73261081 12.430084 -18.19921875 7.65625 C-17.49974121 7.21796875 -16.80026367 6.7796875 -16.07958984 6.328125 C-14.66759192 5.42635595 -13.27224677 4.49807796 -11.89306641 3.546875 C-7.89549107 0.84962445 -4.99492201 -1.07649181 0 0 Z " fill="#F7F7F6" transform="translate(542,214)"/>
<path d="M0 0 C1.34750117 -0.00542515 2.6949964 -0.01255003 4.04248047 -0.02124023 C7.69145498 -0.0394337 11.33997572 -0.03242192 14.98895788 -0.01972389 C18.81557754 -0.00957127 22.64215928 -0.01899622 26.46878052 -0.02526855 C32.89624985 -0.03254017 39.32353519 -0.02297198 45.75097656 -0.00390625 C53.16852305 0.01784318 60.58562938 0.01082346 68.00316513 -0.01121187 C74.38301433 -0.02940199 80.7627315 -0.03190607 87.14259827 -0.0214572 C90.94792074 -0.01523964 94.75303681 -0.01433804 98.55834579 -0.02760315 C102.13888238 -0.03921322 105.71885554 -0.03104315 109.29933167 -0.00802612 C111.23003376 -0.00026857 113.16078386 -0.0120522 115.09146118 -0.02453613 C123.50365169 0.05701544 129.13165499 0.96626006 135.24647522 6.92199707 C137.64202284 12.54667289 137.3249775 17.99622607 137.27954102 24.046875 C137.28332728 25.4271754 137.28882986 26.80747199 137.2959137 28.1877594 C137.30984579 31.92545347 137.2987147 35.66268606 137.28220248 39.40035439 C137.26832409 43.3173214 137.27481523 47.23426237 137.27833557 51.15124512 C137.2810355 57.72834689 137.26758092 64.30526593 137.24438477 70.88232422 C137.21777632 78.47935157 137.2160287 86.07607348 137.22777313 93.67313147 C137.2385636 100.99022156 137.23235391 108.30720148 137.21821785 115.62428284 C137.21246903 118.73420322 137.21253202 121.8440427 137.21728325 124.95396423 C137.22206619 128.61813792 137.21189729 132.28197844 137.1903286 135.94608879 C137.18213705 137.92726425 137.18859884 139.90848341 137.19552612 141.8896637 C137.18562149 143.07563644 137.17571686 144.26160919 137.16551208 145.48352051 C137.16186724 147.02320873 137.16186724 147.02320873 137.15814877 148.59400177 C136.53468685 153.38668731 134.78305646 156.61042437 131.21533203 159.83007812 C127.74535525 162.23236974 125.9167954 162.6594636 121.734375 162.75805664 C120.67550079 162.78344009 119.61662659 162.80882355 118.52566528 162.8349762 C112.2347802 162.94535269 105.94459184 163.03949506 99.65283203 163.08007812 C98.99088333 163.08435822 98.32893463 163.08863831 97.64692688 163.0930481 C76.02382578 163.20586971 57.23696214 161.76931553 36.77783203 154.51757812 C34.74775479 153.86029902 32.71653912 153.20652341 30.68408203 152.55664062 C13.79197416 146.96311379 -2.95416356 139.25191789 -17.22216797 128.51757812 C-18.24853363 127.87735214 -19.27489929 127.23712616 -20.33236694 126.57749939 C-22.36757289 124.85472347 -23.13081301 123.88656874 -23.77724075 121.2755909 C-23.99094034 118.39250137 -24.0097355 115.56296608 -23.96679688 112.67211914 C-23.97409821 111.57887329 -23.98139954 110.48562744 -23.98892212 109.35925293 C-24.00513179 105.74603088 -23.97791615 102.13460345 -23.94873047 98.52148438 C-23.94769314 96.00951641 -23.94872902 93.4975468 -23.95175171 90.98558044 C-23.95157227 85.72057086 -23.93139465 80.45602492 -23.89453125 75.19116211 C-23.85221932 69.113534 -23.84517205 63.03666181 -23.85765517 56.95891625 C-23.86906652 51.1020804 -23.85751127 45.2455139 -23.83530807 39.38871574 C-23.82761241 36.90124517 -23.8253042 34.41375189 -23.82847977 31.92627144 C-23.82922211 28.44788581 -23.80395367 24.97064513 -23.77148438 21.49243164 C-23.77643921 20.46522507 -23.78139404 19.43801849 -23.78649902 18.37968445 C-23.70064325 12.61245854 -23.27586112 8.95817412 -19.22216797 4.51757812 C-13.67383862 -0.84540403 -7.2602868 -0.04679437 0 0 Z M6.46142578 36.82226562 C-7.6293311 53.20173644 -10.63891405 71.51925357 -9.22216797 92.51757812 C-8.55631683 97.42886369 -7.12799014 101.94609617 -5.22216797 106.51757812 C-4.84833984 107.4225 -4.47451172 108.32742188 -4.08935547 109.25976562 C-1.30044368 115.33626879 2.41390227 120.47664458 6.77783203 125.51757812 C7.36177734 126.19691406 7.94572266 126.87625 8.54736328 127.57617188 C19.03355248 138.90125621 35.10265683 147.1509655 50.66064453 147.85351562 C72.25839625 148.22599651 89.11359559 142.20090945 105.11767578 127.34570312 C116.01089595 116.24765317 123.06327324 100.3772048 123.24633789 84.81542969 C123.23610596 83.80963867 123.22587402 82.80384766 123.21533203 81.76757812 C123.20288452 80.18541504 123.20288452 80.18541504 123.19018555 78.57128906 C122.79579894 60.29757512 115.62845946 46.41313782 102.77783203 33.51757812 C102.16423828 32.88078125 101.55064453 32.24398438 100.91845703 31.58789062 C87.29924024 18.49248986 68.90725172 15.06591009 50.77001953 15.30664062 C33.5196395 15.82937941 18.46451044 24.87990483 6.46142578 36.82226562 Z " fill="#F9F9F8" transform="translate(265.22216796875,243.482421875)"/>
<path d="M0 0 C2.27200099 0.34470932 4.48446318 0.76185754 6.71720886 1.30114746 C6.15602906 4.65041681 5.37711239 7.32790156 3.74845886 10.30505371 C3.34707703 11.03957764 2.94569519 11.77410156 2.53215027 12.53088379 C1.88125427 13.68560181 1.88125427 13.68560181 1.21720886 14.86364746 C0.54117615 16.06573853 0.54117615 16.06573853 -0.14851379 17.29211426 C-20.2857145 52.45628603 -54.92050734 78.01158153 -93.77790833 88.65368652 C-99.56835141 90.15039754 -105.38065617 91.33236268 -111.28279114 92.30114746 C-112.18465149 92.47460693 -113.08651184 92.64806641 -114.01570129 92.82678223 C-117.60669738 93.34817704 -121.02165628 93.41379678 -124.64997864 93.39880371 C-125.6693602 93.39668129 -125.6693602 93.39668129 -126.70933533 93.39451599 C-128.85886726 93.38896264 -131.00829121 93.37641915 -133.15779114 93.36364746 C-134.62393546 93.35862642 -136.09008142 93.35406457 -137.55622864 93.34997559 C-141.13178397 93.33900857 -144.707277 93.32177665 -148.28279114 93.30114746 C-148.16121643 92.75627686 -148.03964172 92.21140625 -147.91438293 91.65002441 C-146.47797119 83.80775159 -145.94676458 75.33050202 -150.53755188 68.40948486 C-158.4793028 58.25227501 -168.59171934 49.73614005 -178.28279114 41.30114746 C-179.13921204 40.54140625 -179.99563293 39.78166504 -180.87800598 38.99890137 C-183.77483261 36.43306438 -186.68619505 33.99639819 -189.78279114 31.67614746 C-192.06333473 29.43258566 -192.28342499 28.29551026 -192.64997864 25.03552246 C-192.65700697 21.78843079 -192.48122158 18.54217802 -192.28279114 15.30114746 C-180.89779114 16.78614746 -180.89779114 16.78614746 -169.28279114 18.30114746 C-169.50966614 20.38427246 -169.73654114 22.46739746 -169.97029114 24.61364746 C-169.7603051 33.54448086 -164.65829334 39.45384673 -158.67781067 45.61245728 C-145.92296698 56.91848716 -128.78585745 56.58445116 -112.54539108 56.66098022 C-109.76221476 56.67626043 -106.98116197 56.72874205 -104.19847107 56.78137207 C-80.94569298 57.04545591 -63.7518886 53.98009527 -46.71946716 37.49972534 C-41.0891152 31.83553315 -36.03845959 25.7450601 -31.13825989 19.44714355 C-29.76090921 17.683618 -28.3829808 15.92057868 -27.00207901 14.159832 C-26.12071144 13.03383368 -25.2440492 11.90413479 -24.37237167 10.77061844 C-17.22343513 1.61568595 -11.56935138 -1.15642254 0 0 Z " fill="#090909" transform="translate(530.2827911376953,413.6988525390625)"/>
<path d="M0 0 C7.98459143 6.60154613 13.56790616 15.36258928 15.1875 25.6875 C15.97645919 38.82458794 13.47618499 48.98113044 6 59.875 C-3.10342095 68.97842095 -13.55095615 73.75937994 -26.5 74.125 C-39.51703204 73.63940675 -49.08548206 68.19248678 -58.0234375 58.8984375 C-64.03015278 51.47529155 -67.20446885 42.4294861 -67.125 32.9375 C-67.11936035 32.23230225 -67.1137207 31.52710449 -67.10791016 30.80053711 C-66.82112106 18.3990382 -61.79013806 8.84597823 -52.87109375 0.32421875 C-36.96328109 -12.32354881 -16.05645564 -11.5712639 0 0 Z " fill="#0E0E0E" transform="translate(509.8125,140.3125)"/>
<path d="M0 0 C3.25491042 1.26982399 6.41567562 2.63872956 9.5546875 4.171875 C15.01756302 6.8220737 20.50115981 9.42527117 26 12 C26.64727051 12.30518555 27.29454102 12.61037109 27.96142578 12.92480469 C46.00333335 21.27417841 66.56432712 25.31445884 86 29 C85.979375 30.134375 85.95875 31.26875 85.9375 32.4375 C85.80893112 40.8874533 85.80893112 40.8874533 88.56640625 48.6640625 C90.60979228 50.67145934 92.6917311 52.30221223 95 54 C97.71155618 56.28242801 100.34960071 58.6471132 103 61 C104.02669946 61.89331495 105.05347889 62.78653798 106.08032227 63.6796875 C129.15044458 83.89976399 129.15044458 83.89976399 130.6953125 93.15234375 C130.89238132 97.96424658 130.22665324 102.35549242 129 107 C127.20793453 106.85915204 125.41635083 106.71216299 123.625 106.5625 C122.12839844 106.44068359 122.12839844 106.44068359 120.6015625 106.31640625 C118 106 118 106 116 105 C116.17015625 103.23197021 116.17015625 103.23197021 116.34375 101.42822266 C116.71142113 94.07508793 116.69039606 87.53948369 111.93359375 81.57714844 C107.90391438 77.20567735 103.47497547 73.28089798 99 69.375 C96.71772852 67.32984136 94.45039528 65.27197534 92.20336914 63.18814087 C90.81347725 61.90450383 89.40195905 60.64375518 87.96655273 59.41122437 C84.42927891 56.19974325 82.63657043 54.08016979 82.12109375 49.23681641 C82.09486938 48.13365585 82.09486938 48.13365585 82.06811523 47.00820923 C82.0880365 44.79096499 82.0880365 44.79096499 81 42 C77.50256579 40.5203163 73.72430526 40.66747274 70 41 C67.39685006 42.3530128 67.39685006 42.3530128 66 45 C65.3181366 48.78124251 65.28413876 51.76134742 67.23291016 55.13330078 C68.81860049 57.23784022 68.81860049 57.23784022 71.14770508 57.11279297 C71.99228271 57.03174316 72.83686035 56.95069336 73.70703125 56.8671875 C82.43212336 57.38186586 87.84904368 64.17589873 93.6472168 70.06884766 C95.67994548 72.11738672 97.77016369 74.09026207 99.87304688 76.06640625 C110.66473364 86.61058851 110.66473364 86.61058851 110.97187805 94.45016479 C110.86221928 97.34525166 110.52612695 100.15263463 110 103 C81.48453497 99.14023648 57.59086825 82.12738505 37 63 C36.33355469 62.39929688 35.66710937 61.79859375 34.98046875 61.1796875 C19.52943885 46.64124388 2.47024516 21.44310038 0 0 Z " fill="#090808" transform="translate(247,399)"/>
<path d="M0 0 C161.7 0 323.4 0 490 0 C490 2.64 490 5.28 490 8 C328.3 8 166.6 8 0 8 C0 5.36 0 2.72 0 0 Z " fill="#2F9C97" transform="translate(150,644)"/>
<path d="M0 0 C6.6 -0.061875 13.2 -0.12375 20 -0.1875 C22.06765625 -0.21481201 24.1353125 -0.24212402 26.265625 -0.27026367 C27.92707741 -0.27903561 29.58853634 -0.28667787 31.25 -0.29296875 C32.09433594 -0.30831665 32.93867188 -0.32366455 33.80859375 -0.33947754 C41.87183407 -0.34299349 48.48263665 1.67403012 54.45703125 7.29296875 C60.0108183 13.43728506 60.6402936 19.41907852 60.38671875 27.5859375 C59.68732005 33.760427 57.59472836 38.00658955 53.75 42.8125 C47.48690501 47.79450738 41.3471811 50.14014458 33.359375 50.09765625 C32.28945312 50.09443359 31.21953125 50.09121094 30.1171875 50.08789062 C29.00601563 50.07951172 27.89484375 50.07113281 26.75 50.0625 C25.06003906 50.05573242 25.06003906 50.05573242 23.3359375 50.04882812 C20.55726894 50.03705411 17.77862773 50.019119 15 50 C15 56.93 15 63.86 15 71 C10.05 71 5.1 71 0 71 C0 47.57 0 24.14 0 0 Z " fill="#F4F5F5" transform="translate(153,558)"/>
<path d="M0 0 C4.39543809 3.54126389 6.219475 8.06506562 7.625 13.4375 C7.625 14.4275 7.625 15.4175 7.625 16.4375 C2.675 16.4375 -2.275 16.4375 -7.375 16.4375 C-8.035 14.7875 -8.695 13.1375 -9.375 11.4375 C-11.80172567 9.64780974 -11.80172567 9.64780974 -14.375 8.4375 C-15.035 8.1075 -15.695 7.7775 -16.375 7.4375 C-22.48122124 6.79081262 -26.95293484 7.61350773 -32.375 10.4375 C-33.69468178 11.54278442 -33.69468178 11.54278442 -33.625 14.3125 C-33.64027459 17.35650115 -33.64027459 17.35650115 -32.1875 19.1875 C-28.52162173 21.71569191 -24.66557613 22.66905888 -20.3125 23.3125 C-10.51046886 25.00798647 -0.97746457 27.46186262 5.9375 34.9375 C9.1204443 39.65297304 9.26474962 44.88995686 8.625 50.4375 C6.76829785 56.60040896 3.05275752 61.05437347 -2.375 64.4375 C-11.60981221 69.11670695 -25.71781365 69.21017201 -35.5625 66.25 C-41.6909489 63.66643821 -46.56892953 60.35664954 -49.6640625 54.3515625 C-50.88119434 51.07466909 -51.13094686 47.9152573 -51.375 44.4375 C-46.425 44.4375 -41.475 44.4375 -36.375 44.4375 C-36.00375 45.530625 -35.6325 46.62375 -35.25 47.75 C-34.04964254 50.44534811 -33.35949558 51.45014834 -31 53.375 C-24.2626014 55.34975476 -17.23737522 55.48703758 -10.625 53.0625 C-8.27974755 51.63304027 -8.27974755 51.63304027 -7.375 49.4375 C-6.7911804 46.5225745 -6.7911804 46.5225745 -7.375 43.4375 C-13.18683486 38.31171647 -20.3809753 37.77777625 -27.7890625 36.45898438 C-35.14226538 35.02972963 -40.89818139 32.93604873 -46.25 27.55078125 C-49.57487591 22.22867086 -50.42364284 17.65021416 -49.375 11.4375 C-47.27738024 4.47833796 -42.77869913 -0.19540006 -36.44921875 -3.59765625 C-24.92446645 -8.26398722 -10.3616501 -6.71130731 0 0 Z " fill="#F7F7F6" transform="translate(414.375,562.5625)"/>
<path d="M0 0 C0.80308594 -0.01546875 1.60617188 -0.0309375 2.43359375 -0.046875 C8.8194429 -0.00547565 14.33455991 1.49957582 19.06420898 5.98266602 C22.28786802 9.69116337 23.62883393 12.65964334 23.61352539 17.51245117 C23.61344986 18.31305466 23.61337433 19.11365814 23.61329651 19.93852234 C23.60813522 20.79798965 23.60297394 21.65745697 23.59765625 22.54296875 C23.5962413 23.4265657 23.59482635 24.31016266 23.59336853 25.22053528 C23.58777069 28.04289128 23.57521861 30.86516797 23.5625 33.6875 C23.55748472 35.60091031 23.55292186 37.51432187 23.54882812 39.42773438 C23.53780197 44.11852014 23.52053883 48.80924663 23.5 53.5 C19.21 53.5 14.92 53.5 10.5 53.5 C10.17 51.85 9.84 50.2 9.5 48.5 C8.95730469 48.84933594 8.41460937 49.19867187 7.85546875 49.55859375 C7.14003906 50.01363281 6.42460937 50.46867188 5.6875 50.9375 C4.62595703 51.61619141 4.62595703 51.61619141 3.54296875 52.30859375 C-1.75497089 55.39821438 -7.55501351 55.03497344 -13.5 54.5 C-18.00431503 53.23066807 -20.78719511 51.24844513 -24 47.875 C-26.03594177 43.29413102 -26.29592147 39.43632102 -25.5 34.5 C-22.50937716 28.51875431 -18.46033743 24.9980112 -12.1875 22.8125 C-5.12458822 20.84045786 2.21233469 20.76221128 9.5 20.5 C8.90138258 18.14828869 8.23075648 15.8140622 7.5 13.5 C4.91991408 12.20995704 2.94258426 12.29589776 0.0625 12.25 C-0.90558594 12.22421875 -1.87367188 12.1984375 -2.87109375 12.171875 C-5.52590891 12.27536112 -5.52590891 12.27536112 -7.28515625 13.890625 C-8.57423506 15.49685834 -8.57423506 15.49685834 -9.5 17.5 C-14.12 17.5 -18.74 17.5 -23.5 17.5 C-23.20997495 12.66624911 -22.43223777 9.44979502 -19.06420898 5.84106445 C-13.32521556 0.92077557 -7.36016436 -0.14176882 0 0 Z " fill="#F7F8F6" transform="translate(244.5,575.5)"/>
<path d="M0 0 C3.68208943 2.79766598 5.5296905 5.65553953 7.21875 9.8984375 C7.60408406 12.94600085 7.56949678 15.94792175 7.51171875 19.015625 C7.50747391 19.87278107 7.50322906 20.72993713 7.49885559 21.61306763 C7.48214886 24.33351914 7.44451219 27.05321232 7.40625 29.7734375 C7.39119278 31.62498925 7.3775062 33.47655269 7.36523438 35.328125 C7.33227165 39.85185183 7.28054537 44.37501637 7.21875 48.8984375 C2.92875 48.8984375 -1.36125 48.8984375 -5.78125 48.8984375 C-5.78125 47.2484375 -5.78125 45.5984375 -5.78125 43.8984375 C-6.44125 43.8984375 -7.10125 43.8984375 -7.78125 43.8984375 C-7.78125 44.5584375 -7.78125 45.2184375 -7.78125 45.8984375 C-15.07392212 50.416022 -21.2103005 52.13803763 -29.78125 50.8984375 C-33.79409026 49.84621066 -36.61308904 48.42833012 -39.15625 45.09765625 C-41.60009543 40.72758543 -42.58804105 36.91847068 -41.78125 31.8984375 C-39.35078655 26.40662433 -36.2538687 22.53702152 -30.78125 19.8984375 C-22.76441849 17.39249964 -15.15427425 16.44538809 -6.78125 16.8984375 C-7.6121693 13.78249011 -8.29131642 11.44280815 -10.46875 9.0234375 C-14.34600219 7.13720671 -18.03625758 7.33249401 -22.09375 8.6484375 C-24.22365864 10.02903886 -24.22365864 10.02903886 -25.78125 13.8984375 C-30.40125 13.8984375 -35.02125 13.8984375 -39.78125 13.8984375 C-38.65644633 7.14961545 -37.28453413 3.85752943 -31.90625 -0.3515625 C-22.03968519 -5.87683879 -9.77639743 -6.04592999 0 0 Z " fill="#F4F5F3" transform="translate(512.78125,579.1015625)"/>
<path d="M0 0 C4.62 0 9.24 0 14 0 C14 13.86 14 27.72 14 42 C14.66 42 15.32 42 16 42 C16.26353271 41.41428223 16.52706543 40.82856445 16.79858398 40.22509766 C18.05102842 37.90549218 19.40316574 36.29795369 21.22265625 34.3984375 C21.84333984 33.74359375 22.46402344 33.08875 23.10351562 32.4140625 C23.74998047 31.74117187 24.39644531 31.06828125 25.0625 30.375 C26.34708135 29.03058186 27.62973102 27.68431453 28.91015625 26.3359375 C29.47871338 25.74345215 30.04727051 25.1509668 30.63305664 24.54052734 C32.09383963 23.02826021 32.09383963 23.02826021 33 21 C38.61 21 44.22 21 50 21 C48.34486763 24.31026474 47.27783589 25.98411234 44.8125 28.53125 C44.19632813 29.17707031 43.58015625 29.82289063 42.9453125 30.48828125 C41 32.5 41 32.5 39.0546875 34.51171875 C38.43851563 35.15753906 37.82234375 35.80335938 37.1875 36.46875 C36.62417969 37.05076172 36.06085937 37.63277344 35.48046875 38.23242188 C33.95018857 40.05947143 32.97512914 41.83331062 32 44 C34.22221292 47.34572651 36.44597404 50.69041811 38.67114258 54.03417969 C39.42709751 55.17061845 40.18263702 56.30733367 40.93774414 57.44433594 C42.02639913 59.08341834 43.1166981 60.72140845 44.20703125 62.359375 C45.18893433 63.83615723 45.18893433 63.83615723 46.19067383 65.34277344 C47.32314359 67.00594992 48.49972616 68.64082945 49.73706055 70.22753906 C51 72 51 72 51 74 C45.29948966 75.29029515 39.52624907 76.40636369 34 74 C28.15249279 68.20874521 24.52212787 60.35149924 21 53 C18.33242394 54.58267671 16.3135445 55.80871231 15.49365234 58.92382812 C15.28386247 61.20854707 15.20462077 63.45581684 15.1875 65.75 C15.16236328 66.54277344 15.13722656 67.33554687 15.11132812 68.15234375 C15.0526327 70.10103195 15.0234102 72.05056859 15 74 C10.05 74 5.1 74 0 74 C0 49.58 0 25.16 0 0 Z " fill="#F4F5F5" transform="translate(590,555)"/>
<path d="M0 0 C4.39480189 4.20372355 6.20121732 8.31963363 8 14 C8 14.66 8 15.32 8 16 C3.05 16 -1.9 16 -7 16 C-7.66 14.35 -8.32 12.7 -9 11 C-11.685034 8.83705595 -13.52729749 8.0704025 -16.9375 7.5625 C-20.86292527 8.12327504 -22.94797605 9.50288949 -26 12 C-29.29964324 17.01680452 -28.58622064 23.25643353 -28 29 C-26.79454413 32.45147035 -25.39491647 35.30254177 -22 37 C-19.92435324 37.19758231 -19.92435324 37.19758231 -17.625 37.1875 C-16.85414063 37.20167969 -16.08328125 37.21585938 -15.2890625 37.23046875 C-12.6028406 36.96001296 -11.20229794 36.58148556 -9 35 C-8.01 33.02 -7.02 31.04 -6 29 C-1.38 29 3.24 29 8 29 C7.62080953 35.06704746 5.83448909 39.2559825 2 44 C-5.16599965 49.91973884 -13.26008358 50.57496167 -22.26171875 50.44140625 C-28.70838956 49.68020061 -33.27132722 46.94851846 -37.6484375 42.21875 C-42.47484921 35.85792994 -43.36298273 30.40859324 -43.375 22.6875 C-43.39949219 21.87087891 -43.42398438 21.05425781 -43.44921875 20.21289062 C-43.48279073 13.19075178 -41.62505999 8.16551352 -37.140625 2.7578125 C-27.30151154 -5.73960367 -11.10034495 -7.62113236 0 0 Z " fill="#F6F7F6" transform="translate(573,580)"/>
<path d="M0 0 C1.06225586 1.38256836 1.06225586 1.38256836 2.21484375 3.33984375 C2.64893555 4.06534424 3.08302734 4.79084473 3.53027344 5.53833008 C4.22685059 6.72591919 4.22685059 6.72591919 4.9375 7.9375 C7.9260863 12.96627443 10.92882697 17.95795005 14.20703125 22.8046875 C14.71693604 23.56273682 15.22684082 24.32078613 15.75219727 25.10180664 C16.73451685 26.55166872 17.72817209 27.99392866 18.73413086 29.42749023 C19.39940796 30.41664429 19.39940796 30.41664429 20.078125 31.42578125 C20.67222168 32.28296753 20.67222168 32.28296753 21.27832031 33.1574707 C22.34170717 35.87241679 22.02612865 37.28633672 21 40 C18.71508789 41.94458008 18.71508789 41.94458008 15.72265625 43.76953125 C14.65208984 44.43017578 13.58152344 45.09082031 12.47851562 45.77148438 C11.35123047 46.44501953 10.22394531 47.11855469 9.0625 47.8125 C7.93908203 48.50537109 6.81566406 49.19824219 5.65820312 49.91210938 C-2.67791718 55 -2.67791718 55 -5 55 C-6.34342024 52.98486964 -7.55553575 50.97755853 -8.75 48.875 C-11.63106867 43.90611116 -14.60514665 39.02338936 -17.7421875 34.2109375 C-18.38317383 33.22496582 -19.02416016 32.23899414 -19.68457031 31.22314453 C-20.97045261 29.25290364 -22.26399921 27.28764211 -23.56542969 25.32763672 C-24.15485352 24.42029785 -24.74427734 23.51295898 -25.3515625 22.578125 C-26.15327881 21.36237793 -26.15327881 21.36237793 -26.97119141 20.12207031 C-28 18 -28 18 -27 15 C-24.62329102 13.2824707 -24.62329102 13.2824707 -21.50390625 11.42578125 C-20.38822266 10.75869141 -19.27253906 10.09160156 -18.12304688 9.40429688 C-17.539021 9.06132568 -16.95499512 8.71835449 -16.35327148 8.36499023 C-14.56719908 7.31526179 -12.79001118 6.25164557 -11.01367188 5.18554688 C-2.28038448 0 -2.28038448 0 0 0 Z " fill="#050505" transform="translate(529,240)"/>
<path d="M0 0 C1.52884867 2.22039685 2.93196941 4.43869213 4.3125 6.75 C7.3108136 11.69186432 10.35885676 16.57831405 13.5859375 21.375 C14.18365967 22.26864258 14.78138184 23.16228516 15.3972168 24.08300781 C16.57930364 25.84396741 17.77072339 27.59870214 18.97192383 29.34667969 C19.51099365 30.15524414 20.05006348 30.96380859 20.60546875 31.796875 C21.09168701 32.51198242 21.57790527 33.22708984 22.07885742 33.96386719 C23 36 23 36 22.96362305 38.04907227 C21.56322756 40.88427884 19.6776625 41.80977394 16.9765625 43.41796875 C15.955625 44.03220703 14.9346875 44.64644531 13.8828125 45.27929688 C12.80773437 45.90900391 11.73265625 46.53871094 10.625 47.1875 C9.55765625 47.82880859 8.4903125 48.47011719 7.390625 49.13085938 C-0.48828437 53.82942812 -0.48828437 53.82942812 -4 55 C-4.37697021 54.40687012 -4.75394043 53.81374023 -5.14233398 53.20263672 C-6.26895797 51.43029203 -7.39594307 49.65817687 -8.52319336 47.88623047 C-9.8029079 45.87322204 -11.08105769 43.85921804 -12.35766602 41.84423828 C-15.18552123 37.38728866 -18.01805381 32.93936602 -20.96875 28.5625 C-21.6040564 27.61141357 -21.6040564 27.61141357 -22.25219727 26.64111328 C-23.3661924 24.98124906 -24.49321226 23.33014735 -25.62109375 21.6796875 C-27 19 -27 19 -26.87280273 17.03027344 C-25.6540874 14.19535408 -24.04682447 13.40845364 -21.4140625 11.8359375 C-20.48335938 11.27132813 -19.55265625 10.70671875 -18.59375 10.125 C-17.12421875 9.25875 -17.12421875 9.25875 -15.625 8.375 C-13.7004842 7.21620667 -11.77600352 6.05735502 -9.8515625 4.8984375 C-8.99385254 4.38974121 -8.13614258 3.88104492 -7.25244141 3.35693359 C-1.68010076 0 -1.68010076 0 0 0 Z " fill="#050505" transform="translate(493,262)"/>
<path d="M0 0 C2.72336532 2.49158955 4.47814111 5.4682264 6.3359375 8.6171875 C7.20750485 10.05388834 8.07994109 11.49006234 8.953125 12.92578125 C9.41428711 13.69003418 9.87544922 14.45428711 10.35058594 15.24169922 C12.99910287 19.58885406 15.7346396 23.88105659 18.4609375 28.1796875 C19.49497605 29.81498759 20.52884615 31.45039422 21.5625 33.0859375 C22.32025724 34.28388912 23.078047 35.48182018 23.8359375 36.6796875 C19.54400409 41.23186921 14.57213847 44.1739023 9.2734375 47.4296875 C8.31501953 48.03167969 7.35660156 48.63367188 6.36914062 49.25390625 C5.44939453 49.82238281 4.52964844 50.39085937 3.58203125 50.9765625 C2.74341553 51.49573242 1.9047998 52.01490234 1.04077148 52.54980469 C-1.1640625 53.6796875 -1.1640625 53.6796875 -4.1640625 53.6796875 C-5.7930384 51.4386865 -7.20245956 49.24786295 -8.6015625 46.8671875 C-9.48339111 45.40825902 -10.36625043 43.94995316 -11.25 42.4921875 C-11.71760742 41.71488281 -12.18521484 40.93757813 -12.66699219 40.13671875 C-15.79657491 35.00036512 -19.06851822 29.9516586 -22.31616211 24.8894043 C-22.8035083 24.12281494 -23.29085449 23.35622559 -23.79296875 22.56640625 C-24.22681885 21.88795654 -24.66066895 21.20950684 -25.10766602 20.51049805 C-26.1640625 18.6796875 -26.1640625 18.6796875 -27.1640625 15.6796875 C-21.35630701 11.42977701 -15.38747123 7.43566437 -9.2890625 3.6171875 C-8.64702881 3.19896729 -8.00499512 2.78074707 -7.34350586 2.34985352 C-2.83754264 -0.41999729 -2.83754264 -0.41999729 0 0 Z " fill="#050404" transform="translate(455.1640625,286.3203125)"/>
<path d="M0 0 C4.62 0 9.24 0 14 0 C14 4.95 14 9.9 14 15 C18.29 15 22.58 15 27 15 C27 18.63 27 22.26 27 26 C22.71 26 18.42 26 14 26 C14.1400749 30.47941636 14.28677324 34.95844063 14.4375 39.4375 C14.47681641 40.71689453 14.51613281 41.99628906 14.55664062 43.31445312 C14.59853516 44.52939453 14.64042969 45.74433594 14.68359375 46.99609375 C14.72025146 48.12200928 14.75690918 49.2479248 14.79467773 50.40795898 C14.71218045 52.92853441 14.71218045 52.92853441 16 54 C17.68183948 54.23287008 19.3712416 54.41264166 21.0625 54.5625 C22.691875 54.706875 24.32125 54.85125 26 55 C26 58.96 26 62.92 26 67 C9.20215793 67.5837088 9.20215793 67.5837088 4 64 C-1.54263193 57.26464981 -0.44757472 49.32615585 -0.25 41.0625 C-0.22990977 39.60093585 -0.21166344 38.13934514 -0.1953125 36.67773438 C-0.15150336 33.11793226 -0.08261546 29.55913746 0 26 C-3.3 26 -6.6 26 -10 26 C-10 22.37 -10 18.74 -10 15 C-6.7 15 -3.4 15 0 15 C0 10.05 0 5.1 0 0 Z " fill="#F7F7F6" transform="translate(438,562)"/>
<path d="M0 0 C4.62 0 9.24 0 14 0 C14 4.95 14 9.9 14 15 C17.96 15 21.92 15 26 15 C26 18.63 26 22.26 26 26 C22.04 26 18.08 26 14 26 C14.1400749 30.47941636 14.28677324 34.95844063 14.4375 39.4375 C14.47681641 40.71689453 14.51613281 41.99628906 14.55664062 43.31445312 C14.59853516 44.52939453 14.64042969 45.74433594 14.68359375 46.99609375 C14.72025146 48.12200928 14.75690918 49.2479248 14.79467773 50.40795898 C14.71218045 52.92853441 14.71218045 52.92853441 16 54 C17.68183948 54.23287008 19.3712416 54.41264166 21.0625 54.5625 C22.691875 54.706875 24.32125 54.85125 26 55 C26 58.96 26 62.92 26 67 C23.45767658 67.08152344 20.91800798 67.14073716 18.375 67.1875 C17.66214844 67.21263672 16.94929688 67.23777344 16.21484375 67.26367188 C11.39364522 67.33001864 8.13780732 66.73284982 4 64 C1.07621065 61.09683351 0.06801193 59.53872034 -0.45410156 55.40307617 C-0.45347463 54.03287713 -0.4312491 52.66256559 -0.390625 51.29296875 C-0.38496521 50.56757401 -0.37930542 49.84217926 -0.37347412 49.09480286 C-0.35119099 46.79167992 -0.30101487 44.49014776 -0.25 42.1875 C-0.22992434 40.62046528 -0.21167543 39.05340601 -0.1953125 37.48632812 C-0.15135337 33.65694481 -0.08238623 29.82874154 0 26 C-3.3 26 -6.6 26 -10 26 C-10 22.37 -10 18.74 -10 15 C-6.7 15 -3.4 15 0 15 C0 10.05 0 5.1 0 0 Z " fill="#F5F6F6" transform="translate(329,562)"/>
<path d="M0 0 C2.75329021 1.79562405 4.52627461 3.05254922 6 6 C6.41204834 10.63554388 5.87454146 13.30416098 3 17 C1.25 18.3125 1.25 18.3125 -1 19 C-2.05936768 18.84273438 -3.11873535 18.68546875 -4.21020508 18.5234375 C-8.45276862 19.05693515 -8.77057906 19.36183881 -11.33081055 22.48828125 C-12.52724877 24.08808644 -13.71175488 25.69685741 -14.88671875 27.3125 C-38.31856898 56.81716495 -38.31856898 56.81716495 -55.67586231 59.0606575 C-63.23973798 59.81656947 -70.79162241 59.73715502 -78.375 59.375 C-79.06040737 59.34247131 -79.74581474 59.30994263 -80.45199203 59.27642822 C-89.00250855 58.84043035 -97.50585981 58.07412204 -106 57 C-106.29390625 57.79792969 -106.5878125 58.59585938 -106.890625 59.41796875 C-108 62 -108 62 -109.75 63.3125 C-112.72986902 64.22301553 -114.89492688 64.38021303 -118 64 C-120.69990662 62.20006226 -122.5418865 60.916227 -124 58 C-124.68839635 51.00130378 -124.68839635 51.00130378 -121.9375 47 C-118.20163958 44.45643546 -116.44000949 44.22105097 -112 45 C-109.56499304 46.45246029 -108.01658443 47.93423058 -106 50 C-106 50.66 -106 51.32 -106 52 C-71.65978474 56.35010529 -71.65978474 56.35010529 -40.27905273 45.66827393 C-30.18092187 37.14476116 -18.22981641 25.41248419 -13 13 C-13.04125 11.865625 -13.0825 10.73125 -13.125 9.5625 C-12.97557655 5.3039316 -11.96290248 3.96290248 -9 1 C-5.89951072 -0.55024464 -3.42105782 -0.28992015 0 0 Z " fill="#F0EFEF" transform="translate(512,430)"/>
<path d="M0 0 C1.60875 0.020625 3.2175 0.04125 4.875 0.0625 C4.875 4.3525 4.875 8.6425 4.875 13.0625 C2.338125 13.18625 2.338125 13.18625 -0.25 13.3125 C-5.44513512 13.78053019 -8.20844745 14.64806957 -12.125 18.0625 C-14.49568912 21.61853368 -14.46965108 24.24243345 -14.5390625 28.35546875 C-14.55842865 29.06149734 -14.5777948 29.76752594 -14.5977478 30.49494934 C-14.65745224 32.74651061 -14.7038914 34.99812328 -14.75 37.25 C-14.78818829 38.77801689 -14.82724052 40.30601245 -14.8671875 41.83398438 C-14.96477081 45.57671092 -15.04440802 49.31921463 -15.125 53.0625 C-19.745 53.0625 -24.365 53.0625 -29.125 53.0625 C-29.125 35.9025 -29.125 18.7425 -29.125 1.0625 C-24.505 1.0625 -19.885 1.0625 -15.125 1.0625 C-14.795 3.0425 -14.465 5.0225 -14.125 7.0625 C-13.64289063 6.64097656 -13.16078125 6.21945312 -12.6640625 5.78515625 C-12.03242188 5.23730469 -11.40078125 4.68945312 -10.75 4.125 C-9.81027344 3.30708984 -9.81027344 3.30708984 -8.8515625 2.47265625 C-5.81235033 -0.00959622 -3.85402349 -0.04941056 0 0 Z " fill="#F6F7F6" transform="translate(310.125,575.9375)"/>
<path d="M0 0 C1.76446985 10.61438896 1.38751176 17.14974768 -4.734375 26.38671875 C-7.72243709 30.91573816 -9.62764648 35.88684465 -11.56445312 40.93554688 C-13.5389065 45.80133737 -13.5389065 45.80133737 -16.203125 46.94921875 C-16.79609375 46.96597656 -17.3890625 46.98273438 -18 47 C-25.53037544 38.36109214 -31.74045634 29.62544321 -33 18 C-9.72 0 -9.72 0 0 0 Z " fill="#F6F6F6" transform="translate(299,319)"/>
<path d="M0 0 C2.98450713 0.21180373 3.92690424 0.91992889 5.96484375 3.15234375 C17.00958814 18.74621058 17.00958814 18.74621058 17.75 26.25 C16.9283255 30.35837252 15.79949094 31.94106071 12.45703125 34.42578125 C-7.16873449 47 -7.16873449 47 -15 47 C-16.87867152 36.52053541 -16.1773087 30.75975209 -10.27734375 21.71484375 C-7.19123633 16.92895086 -5.24617162 11.7005413 -3.171875 6.42041016 C-1.0668741 1.0668741 -1.0668741 1.0668741 0 0 Z " fill="#F6F7F6" transform="translate(360,284)"/>
<path d="M0 0 C0.5878125 0.2990625 1.175625 0.598125 1.78125 0.90625 C3.65868246 1.83174487 5.57608796 2.67546627 7.5 3.5 C9.2325 4.2425 9.2325 4.2425 11 5 C11.64582031 5.21011719 12.29164063 5.42023438 12.95703125 5.63671875 C16.14030764 7.76093187 17.46965483 10.998223 19.1875 14.3125 C22.82007216 21.07744643 26.83970752 27.31248592 31.34765625 33.5234375 C33 36 33 36 33 38 C28.16448719 40.51286483 23.50100648 40.33204932 18.1875 40.3125 C17.32318359 40.32861328 16.45886719 40.34472656 15.56835938 40.36132812 C9.72293443 40.36573977 5.25722651 39.63752381 0 37 C-4.64070841 29.96456705 -2.71615335 13.99455227 -1.546875 5.83984375 C-1.11069171 3.87390336 -0.57208206 1.93077694 0 0 Z " fill="#F5F5F4" transform="translate(305,342)"/>
<path d="M0 0 C0.92490234 -0.020625 1.84980469 -0.04125 2.80273438 -0.0625 C8.50478929 -0.09492107 12.7420844 0.28675503 17.6875 3.25 C18.96237121 6.52533154 18.81665229 9.85717272 18.8203125 13.3359375 C18.82160156 14.51414062 18.82289063 15.69234375 18.82421875 16.90625 C18.82035156 18.1334375 18.81648438 19.360625 18.8125 20.625 C18.81830078 22.45417969 18.81830078 22.45417969 18.82421875 24.3203125 C18.82292969 25.50109375 18.82164062 26.681875 18.8203125 27.8984375 C18.81918457 28.97270996 18.81805664 30.04698242 18.81689453 31.15380859 C18.68702211 34.2614351 18.26430586 37.196423 17.6875 40.25 C16.96046875 39.95351563 16.2334375 39.65703125 15.484375 39.3515625 C12.78347912 38.24666846 12.78347912 38.24666846 10.328125 37.5234375 C2.20371161 34.47014489 -0.3254342 28.80037201 -4.05859375 21.48828125 C-6.76810187 16.20744391 -10.21886968 11.57259826 -13.7578125 6.82421875 C-14.27085937 5.97472656 -14.78390625 5.12523437 -15.3125 4.25 C-14.9825 3.26 -14.6525 2.27 -14.3125 1.25 C-9.8299196 -0.46248821 -4.72678474 0.02602497 0 0 Z " fill="#F7F7F7" transform="translate(321.3125,267.75)"/>
<path d="M0 0 C-0.51206075 11.5213668 -8.29701008 20.10871477 -16 28 C-22.61974215 26.93607858 -27.54897641 24.93083286 -33.125 21.25 C-33.78886719 20.83234375 -34.45273437 20.4146875 -35.13671875 19.984375 C-39.68178608 17.06699323 -44.26968564 13.9350533 -48 10 C-48 9.34 -48 8.68 -48 8 C-47.18595703 7.61908203 -47.18595703 7.61908203 -46.35546875 7.23046875 C-45.64003906 6.88628906 -44.92460937 6.54210937 -44.1875 6.1875 C-43.47980469 5.85105469 -42.77210938 5.51460938 -42.04296875 5.16796875 C-39.961061 4.13391698 -39.961061 4.13391698 -38.70605469 2.45898438 C-36.35190275 0.44575999 -34.73046423 0.5724383 -31.66015625 0.48828125 C-30.59603516 0.45283203 -29.53191406 0.41738281 -28.43554688 0.38085938 C-27.32244141 0.35830078 -26.20933594 0.33574219 -25.0625 0.3125 C-23.98419922 0.27833984 -22.90589844 0.24417969 -21.79492188 0.20898438 C-14.52972128 -0.0043139 -7.26784972 -0.03686769 0 0 Z " fill="#F6F6F6" transform="translate(377,339)"/>
<path d="M0 0 C10.06895928 3.54701974 20.89995768 9.46308162 28.375 17.125 C28.375 17.785 28.375 18.445 28.375 19.125 C27.83230469 19.37894531 27.28960937 19.63289063 26.73046875 19.89453125 C26.01503906 20.23871094 25.29960937 20.58289063 24.5625 20.9375 C23.85480469 21.27394531 23.14710938 21.61039062 22.41796875 21.95703125 C20.32910716 22.9629031 20.32910716 22.9629031 19.27148438 24.66601562 C16.20672531 27.02376539 12.7073187 26.60678301 8.98828125 26.63671875 C8.17127243 26.65466995 7.35426361 26.67262115 6.51249695 26.69111633 C3.90421706 26.74527788 1.29612075 26.77913308 -1.3125 26.8125 C-3.08140579 26.84566799 -4.85028733 26.88015717 -6.61914062 26.91601562 C-10.95429473 27.00100746 -15.28939384 27.06779035 -19.625 27.125 C-18.30819633 16.57806688 -13.01805972 7.68999134 -5.625 0.125 C-3.625 -0.875 -3.625 -0.875 0 0 Z " fill="#FBFBFA" transform="translate(286.625,283.875)"/>
<path d="M0 0 C4.3121393 2.47548737 4.3121393 2.47548737 6 5 C6.28283691 7.03697205 6.28283691 7.03697205 6.32226562 9.28100586 C6.78202177 14.52438681 8.78668207 16.9741457 12.46875 20.56640625 C13.02308716 21.13076889 13.57742432 21.69513153 14.14855957 22.27659607 C15.31895049 23.45675665 16.4994824 24.62693826 17.68945312 25.78735352 C19.49809982 27.56063698 21.256745 29.37476133 23.015625 31.19726562 C24.16393721 32.34388584 25.31489668 33.48786227 26.46875 34.62890625 C26.98787964 35.16939102 27.50700928 35.70987579 28.04187012 36.26673889 C31.25354413 39.32211769 33.23125381 40.29490528 37.72070312 40.18334961 C38.46227661 40.10660507 39.2038501 40.02986053 39.96789551 39.95079041 C42 40 42 40 45 42.4375 C45.66 43.283125 46.32 44.12875 47 45 C47.33 45.33 47.66 45.66 48 46 C48.43226095 49.71744413 48.06181666 51.85755292 46.5625 55.3125 C43.44445912 58.58264043 41.59754672 59.02106845 37.19140625 59.24609375 C33.86701761 58.87276668 32.21193763 57.41930678 30 55 C29 53 29 53 29.18359375 49.19140625 C28.43928191 42.06115597 22.66453024 37.40249899 17.79272461 32.63989258 C16.06543705 30.9403898 14.39164072 29.19829459 12.71679688 27.44726562 C7.21207108 21.59048589 7.21207108 21.59048589 0.08007812 18.36816406 C-2.5468235 18.37918902 -2.5468235 18.37918902 -4.91772461 18.88549805 C-7 19 -7 19 -9.00219727 17.59301758 C-11.64360279 14.79663264 -12.86690659 12.66546707 -13.625 8.875 C-12.85587772 5.33703751 -11.50522717 3.57891032 -9 1 C-5.85088521 -0.57455739 -3.47991184 -0.34799118 0 0 Z " fill="#ECEBEB" transform="translate(283,426)"/>
<path d="M0 0 C1.24523437 -0.03287109 2.49046875 -0.06574219 3.7734375 -0.09960938 C4.9696875 -0.10669922 6.1659375 -0.11378906 7.3984375 -0.12109375 C8.49591309 -0.13454834 9.59338867 -0.14800293 10.72412109 -0.16186523 C13.625 0.4375 13.625 0.4375 15.90234375 2.7878418 C17.79808597 5.70372761 19.55760976 8.64839923 21.25 11.6875 C23.57637811 15.8411013 25.92945686 19.97296443 28.3671875 24.0625 C28.82528809 24.83174805 29.28338867 25.60099609 29.75537109 26.39355469 C30.65872449 27.90655086 31.5652341 29.41766766 32.47509766 30.92675781 C35.625 36.21740651 35.625 36.21740651 35.625 38.4375 C31.91438277 39.63995861 28.37308368 40.32983361 24.5078125 39.45751953 C16.10941724 34.90766276 10.93298218 19.99202858 7.625 11.4375 C6.99932129 11.44797363 6.37364258 11.45844727 5.72900391 11.46923828 C2.9027099 11.51073191 0.07647989 11.53680473 -2.75 11.5625 C-3.73484375 11.57925781 -4.7196875 11.59601563 -5.734375 11.61328125 C-6.67539062 11.61972656 -7.61640625 11.62617188 -8.5859375 11.6328125 C-9.88990479 11.64852295 -9.88990479 11.64852295 -11.22021484 11.66455078 C-13.375 11.4375 -13.375 11.4375 -15.375 9.4375 C-15.625 5.9375 -15.625 5.9375 -15.375 2.4375 C-11.59509858 -1.34240142 -5.10038748 0.0236129 0 0 Z " fill="#F7F7F6" transform="translate(289.375,196.5625)"/>
<path d="M0 0 C5.506875 -0.1546875 5.506875 -0.1546875 11.125 -0.3125 C12.2711377 -0.35802002 13.41727539 -0.40354004 14.59814453 -0.45043945 C23.04279813 -0.56519671 23.04279813 -0.56519671 26.6796875 2.39453125 C30.16696095 6.31037534 30.28826834 8.66348069 30.21484375 13.74609375 C29.82494261 17.83651119 28.15088407 20.02127687 25.09375 22.62109375 C20.3625405 24.72982728 15.79760964 24.31403036 10.6875 24.1875 C7.160625 24.125625 3.63375 24.06375 0 24 C0 16.08 0 8.16 0 0 Z " fill="#040505" transform="translate(168,571)"/>
<path d="M0 0 C0.7528125 0.17015625 1.505625 0.3403125 2.28125 0.515625 C5.11666278 1.13536893 5.11666278 1.13536893 8.5 0.75 C12 1 12 1 14.875 3.4375 C15.926875 4.7059375 15.926875 4.7059375 17 6 C17.33 6.33 17.66 6.66 18 7 C18.43226095 10.71744413 18.06181666 12.85755292 16.5625 16.3125 C13.4243999 19.60367815 11.55295141 19.96795619 7.125 20.171875 C5 20 5 20 2.5 18.8125 C-0.57413856 15.09791591 -0.1090062 10.90062019 -0.0625 6.25 C-0.05347656 5.07953125 -0.04445313 3.9090625 -0.03515625 2.703125 C-0.02355469 1.81109375 -0.01195312 0.9190625 0 0 Z " fill="#EAEAEA" transform="translate(313,465)"/>
<path d="M0 0 C2.421875 2.58203125 2.421875 2.58203125 4.75 5.8125 C5.52859375 6.87082031 6.3071875 7.92914063 7.109375 9.01953125 C8.6903946 11.51192371 9.5829703 13.12944556 10 16 C4.08161339 18.43076593 0.53149564 18.17675247 -5.2578125 15.78344727 C-5.97710937 15.46303467 -6.69640625 15.14262207 -7.4375 14.8125 C-8.14777344 14.49659912 -8.85804688 14.18069824 -9.58984375 13.85522461 C-13.03546153 12.22559649 -14.84896393 11.22655411 -17 8 C-15.75482035 6.86966702 -14.50363348 5.74594964 -13.25 4.625 C-12.55390625 3.99851563 -11.8578125 3.37203125 -11.140625 2.7265625 C-7.29771833 -0.3730082 -4.85288023 -1.88309616 0 0 Z " fill="#F2F2F2" transform="translate(389,193)"/>
<path d="M0 0 C0.46968439 5.66093292 0.20100357 8.66783667 -3.359375 13.12890625 C-3.81828125 13.66386719 -4.2771875 14.19882813 -4.75 14.75 C-5.1934375 15.30042969 -5.636875 15.85085937 -6.09375 16.41796875 C-8.56723337 19.45162336 -11.18109454 22.28647418 -14 25 C-18.31000998 18.67865203 -20.10721237 15.71035611 -20 8 C-17.42141033 6.65673469 -14.83782579 5.32525335 -12.25 4 C-11.52039063 3.6184375 -10.79078125 3.236875 -10.0390625 2.84375 C-8.97558594 2.30234375 -8.97558594 2.30234375 -7.890625 1.75 C-7.24125977 1.41484375 -6.59189453 1.0796875 -5.92285156 0.734375 C-4 0 -4 0 0 0 Z " fill="#F1F1EF" transform="translate(469,169)"/>
<path d="M0 0 C0.66 0 1.32 0 2 0 C5.27591952 5.81475715 7.7342166 10.24520726 7 17 C0.49405457 20.50213658 -5.84870304 23.12849037 -13 25 C-13.86636241 19.80182552 -13.89330874 17.31775378 -10.87890625 12.87109375 C-8.37190828 9.80584222 -5.67868816 6.91491893 -3 4 C-2.43925781 3.22269531 -1.87851562 2.44539062 -1.30078125 1.64453125 C-0.87152344 1.10183594 -0.44226563 0.55914062 0 0 Z " fill="#F2F2F1" transform="translate(512,152)"/>
<path d="M0 0 C1.17578304 2.57952403 2.340791 5.16303938 3.5 7.75 C3.83386719 8.47960937 4.16773438 9.20921875 4.51171875 9.9609375 C4.82753906 10.66992188 5.14335937 11.37890625 5.46875 12.109375 C5.76201172 12.75874023 6.05527344 13.40810547 6.35742188 14.07714844 C7 16 7 16 7 20 C1.27009193 20.48845118 -1.68832067 20.17045732 -6.17773438 16.54296875 C-6.71720703 16.07503906 -7.25667969 15.60710937 -7.8125 15.125 C-8.92287646 14.21057233 -10.03354346 13.29649733 -11.14453125 12.3828125 C-12.08683594 11.59648437 -13.02914063 10.81015625 -14 10 C-14.99 9.34 -15.98 8.68 -17 8 C-16 5 -16 5 -13.671875 3.61328125 C-12.22554688 2.96939453 -12.22554688 2.96939453 -10.75 2.3125 C-9.31914062 1.65701172 -9.31914062 1.65701172 -7.859375 0.98828125 C-5.02126367 0.00734933 -2.9733844 -0.20075771 0 0 Z " fill="#F2F3F1" transform="translate(480,137)"/>
<path d="M0 0 C3.86793644 2.64151757 6.20899267 4.36129602 7.2421875 9.03125 C7.4788498 10.51696333 7.68934873 12.00705434 7.875 13.5 C7.99101562 14.24636719 8.10703125 14.99273437 8.2265625 15.76171875 C8.7869959 19.53130057 9.1364101 23.18051713 9 27 C2.36501601 26.64455443 -1.63187218 24.86904957 -7 21 C-6.45806986 15.669877 -5.15341447 11.42105958 -2.9375 6.5625 C-2.65583984 5.92634766 -2.37417969 5.29019531 -2.08398438 4.63476562 C-1.39710188 3.08636949 -0.69965593 1.54266643 0 0 Z " fill="#F2F1F0" transform="translate(470,181)"/>
<path d="M0 0 C2.91672884 -0.02700675 5.83320677 -0.04684237 8.75 -0.0625 C9.9875 -0.07506836 9.9875 -0.07506836 11.25 -0.08789062 C12.04921875 -0.09111328 12.8484375 -0.09433594 13.671875 -0.09765625 C14.4050293 -0.10289307 15.13818359 -0.10812988 15.89355469 -0.11352539 C18.0461849 0.0024891 19.9314135 0.40926729 22 1 C21.52163113 5.30531984 19.14867868 7.208648 16 10 C13.54185219 11.47407372 10.99408961 12.65385977 8.375 13.8125 C7.70726562 14.12380859 7.03953125 14.43511719 6.3515625 14.75585938 C3.40359541 16.0971844 1.27402342 17 -2 17 C-2.05470352 15.29203442 -2.09310718 13.58354375 -2.125 11.875 C-2.14820313 10.92367187 -2.17140625 9.97234375 -2.1953125 8.9921875 C-1.98113809 5.71103551 -1.15546769 3.06608356 0 0 Z " fill="#F1F1F1" transform="translate(365,212)"/>
<path d="M0 0 C-0.62045463 4.23322844 -2.10523559 7.52290295 -4.0625 11.3125 C-4.61035156 12.38113281 -5.15820312 13.44976562 -5.72265625 14.55078125 C-6.14417969 15.35902344 -6.56570313 16.16726562 -7 17 C-14.00619768 15.41795536 -20.66480824 12.33431145 -27 9 C-25.84826645 6.53199953 -24.95216435 4.95216435 -23 3 C-21.09228516 2.49755859 -21.09228516 2.49755859 -18.7890625 2.1484375 C-17.95632813 2.01953125 -17.12359375 1.890625 -16.265625 1.7578125 C-15.39421875 1.63148438 -14.5228125 1.50515625 -13.625 1.375 C-12.76132812 1.2409375 -11.89765625 1.106875 -11.0078125 0.96875 C-7.2597898 0.40191941 -3.80659348 0 0 0 Z " fill="#F1F1EF" transform="translate(520,178)"/>
<path d="M0 0 C3.71500549 1.69325989 5.18298374 3.28796565 7.3125 6.8125 C8.11107422 8.09060547 8.11107422 8.09060547 8.92578125 9.39453125 C10 12 10 12 10.0625 14.55859375 C8.531904 18.07558823 5.90044163 19.4359613 2.6875 21.25 C2.10548828 21.600625 1.52347656 21.95125 0.92382812 22.3125 C-2.0203299 24.046319 -4.67564655 25.26957106 -8 26 C-9.67818859 18.61050379 -8.3773522 14.34802483 -4.5625 7.9375 C-3.9118457 6.78217773 -3.9118457 6.78217773 -3.24804688 5.60351562 C-2.1857248 3.72402272 -1.09565256 1.86025999 0 0 Z " fill="#F3F3F2" transform="translate(423,200)"/>
<path d="M0 0 C-0.41588046 6.19518473 -1.60251894 11.26689311 -4 17 C-10.94485303 17.48452463 -17.2990368 15.69287491 -24 14 C-24 10 -24 10 -22.5703125 7.42578125 C-19.02512448 4.0799427 -15.53592917 3.31039368 -10.875 2.1875 C-9.63943359 1.86362305 -9.63943359 1.86362305 -8.37890625 1.53320312 C-2.43105159 0 -2.43105159 0 0 0 Z " fill="#F2F2F1" transform="translate(435,225)"/>
<path d="M0 0 C6.75022929 -0.84377866 6.75022929 -0.84377866 9.99609375 1.34765625 C11.31813791 2.55797837 12.61972166 3.790946 13.90234375 5.04296875 C17.26580465 8.18094624 21.12189581 10.5492536 25 13 C21.69194139 16.99723749 17.95595945 18.78177533 13 20 C11.33400359 20.04726231 9.66565939 20.05793598 8 20 C6.8439273 17.7965194 5.70015279 15.58796844 4.5625 13.375 C4.07426758 12.44880859 4.07426758 12.44880859 3.57617188 11.50390625 C1.61740372 7.66714389 0.46778742 4.28256092 0 0 Z " fill="#F5F5F4" transform="translate(481,188)"/>
<path d="M0 0 C5.00600922 0.54681024 8.97181067 2.24140333 13.375 4.5625 C14.01566406 4.89185547 14.65632813 5.22121094 15.31640625 5.56054688 C16.88138632 6.36639482 18.44124021 7.18218493 20 8 C16.5160087 13.56543363 16.5160087 13.56543363 12.61865234 14.68261719 C9.80309314 15.03793455 7.02216293 15.24173848 4.1875 15.375 C3.20845703 15.44332031 2.22941406 15.51164063 1.22070312 15.58203125 C-1.18573916 15.74637365 -3.59078815 15.88480588 -6 16 C-5.22321429 7.5 -5.22321429 7.5 -2.4375 3.5 C-1.98246094 2.8296875 -1.52742188 2.159375 -1.05859375 1.46875 C-0.53458984 0.74171875 -0.53458984 0.74171875 0 0 Z " fill="#F3F3F2" transform="translate(455,151)"/>
<path d="M0 0 C4.28087732 0.54609432 7.56187072 1.55287781 11.375 3.5625 C12.24898438 4.01753906 13.12296875 4.47257813 14.0234375 4.94140625 C15.00183594 5.46541016 15.00183594 5.46541016 16 6 C15.69196223 13.85496312 12.46909516 20.04059197 9 27 C6.32090917 25.82381378 4.91497508 25.13973741 3 23 C1.7963108 19.14516641 1.47509792 15.26153865 1.125 11.25 C0.95097656 9.63158203 0.95097656 9.63158203 0.7734375 7.98046875 C0.49110447 5.32183275 0.23431814 2.6632257 0 0 Z " fill="#F5F5F2" transform="translate(489,137)"/>
<path d="M0 0 C5.76600505 -0.23534715 10.53973215 0.06615514 16 2 C17.6680907 3.6680907 17.17145582 5.64959973 17.1875 7.9375 C17.1512006 13.48404804 16.30641458 18.62270425 15 24 C8.14652115 21.2946794 8.14652115 21.2946794 7.03857422 19.06640625 C6.7138916 18.24011719 6.38920898 17.41382813 6.0546875 16.5625 C5.70019531 15.66789063 5.34570312 14.77328125 4.98046875 13.8515625 C4.61566406 12.91054687 4.25085938 11.96953125 3.875 11 C3.50246094 10.05898437 3.12992187 9.11796875 2.74609375 8.1484375 C0 1.16752518 0 1.16752518 0 0 Z " fill="#F5F4F3" transform="translate(397,190)"/>
<path d="M0 0 C3.28768825 1.09589608 3.64293383 1.47727309 5.3125 4.3125 C5.86357422 5.20388672 5.86357422 5.20388672 6.42578125 6.11328125 C7 8 7 8 6.4375 9.96484375 C4.53463879 12.65884018 2.34798677 14.3059366 -0.3125 16.25 C-1.25738281 16.95640625 -2.20226562 17.6628125 -3.17578125 18.390625 C-6.18732259 20.10674538 -7.61159924 20.69593416 -11 20 C-12.58203125 18.3203125 -12.58203125 18.3203125 -13.8125 16.125 C-14.23144531 15.40570313 -14.65039062 14.68640625 -15.08203125 13.9453125 C-16 12 -16 12 -16 10 C-13.91978313 8.57560043 -11.85755579 7.2729764 -9.6875 6 C-8.50369243 5.29202407 -7.32009196 4.58370172 -6.13671875 3.875 C-5.10160156 3.25625 -4.06648437 2.6375 -3 2 C-2.01 1.34 -1.02 0.68 0 0 Z " fill="#D5D5D4" transform="translate(561,290)"/>
<path d="M0 0 C0.42968661 4.29686609 0.41369759 7.01214548 -2.3125 10.375 C-5.82646631 13.80724617 -8.26378115 14.16542466 -13 14.25 C-14.299375 14.28867187 -14.299375 14.28867187 -15.625 14.328125 C-18 14 -18 14 -19.78515625 12.63671875 C-21 11 -21 11 -21.4375 8.5625 C-21 6 -21 6 -19.5625 3.8125 C-13.79861493 -0.26439432 -6.83582329 -0.24857539 0 0 Z " fill="#111111" transform="translate(254,605)"/>
<path d="M0 0 C0.42968661 4.29686609 0.41369759 7.01214548 -2.3125 10.375 C-5.82646631 13.80724617 -8.26378115 14.16542466 -13 14.25 C-14.299375 14.28867187 -14.299375 14.28867187 -15.625 14.328125 C-18 14 -18 14 -19.78125 12.63671875 C-21 11 -21 11 -21.5 8.5625 C-21 6 -21 6 -19 3.8125 C-12.90369858 0.12931789 -6.99953933 -0.24998355 0 0 Z " fill="#0F0F0F" transform="translate(506,605)"/>
<path d="M0 0 C1.08667969 0.02707031 2.17335938 0.05414063 3.29296875 0.08203125 C4.54013672 0.13423828 4.54013672 0.13423828 5.8125 0.1875 C5.8125 0.5175 5.8125 0.8475 5.8125 1.1875 C2.1825 1.1875 -1.4475 1.1875 -5.1875 1.1875 C-5.8475 2.5075 -6.5075 3.8275 -7.1875 5.1875 C-8.44872475 6.6948204 -8.44872475 6.6948204 -9.8956604 8.13616943 C-10.44532974 8.6885881 -10.99499908 9.24100677 -11.56132507 9.81016541 C-12.16193253 10.40358231 -12.76253998 10.99699921 -13.38134766 11.60839844 C-14.0156218 12.24296463 -14.64989594 12.87753082 -15.3033905 13.53132629 C-17.39807478 15.62461882 -19.49975102 17.7107408 -21.6015625 19.796875 C-23.0564557 21.24803753 -24.51090756 22.69964267 -25.9649353 24.15167236 C-29.79100926 27.97011418 -33.62305162 31.78251149 -37.45635986 35.59368896 C-41.36775204 39.48461379 -45.27348085 43.38121428 -49.1796875 47.27734375 C-56.84342027 54.91963399 -64.51346905 62.55555174 -72.1875 70.1875 C-72.8475 69.8575 -73.5075 69.5275 -74.1875 69.1875 C-73.49712646 68.50236328 -72.80675293 67.81722656 -72.09545898 67.11132812 C-69.50037873 64.53454017 -66.90876708 61.95428638 -64.31811523 59.37304688 C-63.2028271 58.26274416 -62.08663789 57.15334571 -60.96948242 56.04492188 C-55.39760422 50.51546281 -49.9259208 44.99486195 -44.8269043 39.02050781 C-41.73033262 35.55825016 -38.28793945 32.45768228 -34.875 29.3125 C-33.37007833 27.9099429 -31.86616782 26.50630005 -30.36328125 25.1015625 C-29.28554443 24.09464355 -29.28554443 24.09464355 -28.18603516 23.06738281 C-22.03614117 17.28260591 -16.12967487 11.31600556 -10.66015625 4.87890625 C-10.17417969 4.32074219 -9.68820312 3.76257813 -9.1875 3.1875 C-8.75695312 2.62289063 -8.32640625 2.05828125 -7.8828125 1.4765625 C-5.31805613 -0.47359787 -3.16239299 -0.10201268 0 0 Z " fill="#222222" transform="translate(543.1875,372.8125)"/>
<path d="M0 0 C2.4375 2.125 2.4375 2.125 4 5 C3.936318 8.18409977 3.51040601 10.14932332 1.875 12.875 C-1.15859527 14.69515716 -3.55964514 14.43004436 -7 14 C-9.87915173 11.67810344 -9.98552483 10.11786923 -10.4375 6.4375 C-10 3 -10 3 -8.375 1.0625 C-5.2624367 -0.32996253 -3.37429445 -0.56238241 0 0 Z " fill="#111010" transform="translate(389,253)"/>
<path d="M0 0 C2.5 1.5625 2.5 1.5625 4 4 C4 7.81153499 3.80074051 10.05097421 1.3125 13 C-1.87167993 14.37694267 -3.70924801 13.980224 -7 13 C-8.875 11.875 -8.875 11.875 -10 10 C-10.36528977 6.5906288 -10.6140629 4.11976176 -8.9375 1.0625 C-5.8347167 -0.63902633 -3.46230815 -0.42519574 0 0 Z " fill="#0C0C0C" transform="translate(389,384)"/>
<path d="M0 0 C2.375 1.5625 2.375 1.5625 4 4 C4.5 7.5625 4.5 7.5625 4 11 C1.80827201 13.61321414 0.35345908 13.94109015 -3 14.5 C-6 14 -6 14 -8.4375 11.875 C-10 9 -10 9 -9.9375 5.875 C-8.12944906 0.33031044 -5.83514388 -0.83359198 0 0 Z " fill="#0D0C0C" transform="translate(261,253)"/>
<path d="M0 0 C2.99156701 0.63644122 5.41938953 1.61952013 8.109375 3.06640625 C8.86347656 3.46923828 9.61757813 3.87207031 10.39453125 4.28710938 C11.56048828 4.91842773 11.56048828 4.91842773 12.75 5.5625 C13.93916016 6.19961914 13.93916016 6.19961914 15.15234375 6.84960938 C17.10371067 7.89582417 19.05279814 8.94605953 21 10 C19.77974937 13.6607519 18.873509 13.92339441 15.5625 15.6875 C14.75941406 16.12449219 13.95632813 16.56148438 13.12890625 17.01171875 C11 18 11 18 9 18 C8.76925781 17.28714844 8.53851563 16.57429688 8.30078125 15.83984375 C6.23236678 9.76540915 4.01047205 5.01309006 0 0 Z " fill="#F2F1F1" transform="translate(403,240)"/>
<path d="M0 0 C1.02370193 0.01110306 2.04740387 0.02220612 3.10212708 0.03364563 C4.84359261 0.03421211 4.84359261 0.03421211 6.62023926 0.03479004 C8.50003227 0.07349968 8.50003227 0.07349968 10.4178009 0.11299133 C12.34248955 0.12360344 12.34248955 0.12360344 14.30606079 0.13442993 C17.71451137 0.15350499 21.12189356 0.20260688 24.52992249 0.25794983 C28.00867763 0.30913333 31.48760574 0.33194184 34.96662903 0.35713196 C41.79063515 0.41072753 48.61393234 0.49604464 55.43733215 0.60127258 C55.43733215 1.26127258 55.43733215 1.92127258 55.43733215 2.60127258 C54.74242172 2.60713882 54.04751129 2.61300507 53.33154297 2.61904907 C46.78357206 2.67694599 40.23592826 2.74900485 33.68828869 2.8369875 C30.32202738 2.88172099 26.95588792 2.92096998 23.58943176 2.94770813 C19.71941494 2.98116239 15.85004768 3.03347511 11.9803009 3.08955383 C10.16612923 3.09913872 10.16612923 3.09913872 8.31530762 3.10891724 C7.1943721 3.1287114 6.07343658 3.14850555 4.91853333 3.16889954 C3.93036118 3.18000259 2.94218903 3.19110565 1.92407227 3.20254517 C-0.9196771 3.65851595 -1.8113157 4.37244477 -3.56266785 6.60127258 C-4.22266785 6.27127258 -4.88266785 5.94127258 -5.56266785 5.60127258 C-3.32044665 0.7790684 -3.32044665 0.7790684 0 0 Z " fill="#3D3D3D" transform="translate(408.5626678466797,447.3987274169922)"/>
<path d="M0 0 C-0.33 0.99 -0.66 1.98 -1 3 C-1 2.34 -1 1.68 -1 1 C-13.78967745 -0.05016012 -13.78967745 -0.05016012 -25.15234375 4.8203125 C-29.56228236 8.9822405 -33.43899405 13.45960593 -36 19 C-38 21 -38 21 -39.88183594 21.89404297 C-42.35239701 23.18399705 -43.93751959 24.71070539 -45.890625 26.6953125 C-46.59960938 27.41074219 -47.30859375 28.12617188 -48.0390625 28.86328125 C-48.76867187 29.60964844 -49.49828125 30.35601562 -50.25 31.125 C-50.99507813 31.87910156 -51.74015625 32.63320313 -52.5078125 33.41015625 C-54.3431342 35.26900772 -56.1736191 37.13237005 -58 39 C-58.66 38.67 -59.32 38.34 -60 38 C-55.07267409 32.50921594 -50.05652466 27.11124257 -44.97314453 21.76464844 C-43.25940772 19.9410856 -41.56601693 18.0981567 -39.89501953 16.23535156 C-27.529893 2.48976016 -18.76413315 -3.33548579 0 0 Z " fill="#171817" transform="translate(537,415)"/>
<path d="M0 0 C2.04442328 3.54366701 2.26700438 5.60202629 3 10 C-1.62 10 -6.24 10 -11 10 C-7.50640535 6.40365256 -3.88901869 3.16548033 0 0 Z " fill="#EBECEC" transform="translate(382,225)"/>
<path d="M0 0 C4.55555556 0.55555556 4.55555556 0.55555556 6 2 C6.1875 4.4375 6.1875 4.4375 6 7 C5.34 7.66 4.68 8.32 4 9 C-0.55555556 8.44444444 -0.55555556 8.44444444 -2 7 C-2.1875 4.5625 -2.1875 4.5625 -2 2 C-1.34 1.34 -0.68 0.68 0 0 Z " fill="#1C1B1B" transform="translate(395,480)"/>
<path d="M0 0 C2.5625 0.1875 2.5625 0.1875 4.5625 2.1875 C4.75 4.75 4.75 4.75 4.5625 7.1875 C3.5625 8.1875 3.5625 8.1875 0.5625 8.3125 C-2.4375 8.1875 -2.4375 8.1875 -3.4375 7.1875 C-3.5625 4.1875 -3.5625 4.1875 -3.4375 1.1875 C-2.4375 0.1875 -2.4375 0.1875 0 0 Z " fill="#121211" transform="translate(279.4375,430.8125)"/>
<path d="M0 0 C4.55555556 0.55555556 4.55555556 0.55555556 6 2 C6.125 4.5 6.125 4.5 6 7 C5 8 5 8 2 8.125 C-1 8 -1 8 -2 7 C-2.1875 4.5625 -2.1875 4.5625 -2 2 C-1.34 1.34 -0.68 0.68 0 0 Z " fill="#181816" transform="translate(319,471)"/>
<path d="M0 0 C3 0.125 3 0.125 4 1.125 C4.1875 3.5625 4.1875 3.5625 4 6.125 C3.34 6.785 2.68 7.445 2 8.125 C-2.55555556 7.56944444 -2.55555556 7.56944444 -4 6.125 C-4.125 3.625 -4.125 3.625 -4 1.125 C-3 0.125 -3 0.125 0 0 Z " fill="#151514" transform="translate(397,441.875)"/>
<path d="M0 0 C2.5 0.125 2.5 0.125 3.5 1.125 C3.625 4.125 3.625 4.125 3.5 7.125 C2.5 8.125 2.5 8.125 0.0625 8.3125 C-2.5 8.125 -2.5 8.125 -4.5 6.125 C-3.77607362 0.18880368 -3.77607362 0.18880368 0 0 Z " fill="#181918" transform="translate(508.5,434.875)"/>
<path d="M0 0 C3.32368224 1.10789408 3.61563093 1.48436217 5.25 4.375 C5.60578125 4.98085938 5.9615625 5.58671875 6.328125 6.2109375 C7 8 7 8 6 11 C5.01 11.33 4.02 11.66 3 12 C2.10577086 10.7636832 1.23512109 9.51028438 0.375 8.25 C-0.11226562 7.55390625 -0.59953125 6.8578125 -1.1015625 6.140625 C-2 4 -2 4 -1.1484375 1.734375 C-0.76945313 1.16203125 -0.39046875 0.5896875 0 0 Z " fill="#1F1F1C" transform="translate(534,307)"/>
<path d="M0 0 C0.66 0 1.32 0 2 0 C3.32421875 1.64453125 3.32421875 1.64453125 4.6875 3.8125 C5.14511719 4.52019531 5.60273437 5.22789062 6.07421875 5.95703125 C7 8 7 8 6 11 C5.01 11.33 4.02 11.66 3 12 C2.13050683 10.92892883 1.27985795 9.84254056 0.4375 8.75 C-0.03816406 8.14671875 -0.51382813 7.5434375 -1.00390625 6.921875 C-2 5 -2 5 -1.71484375 2.828125 C-1 1 -1 1 0 0 Z " fill="#1C1C1C" transform="translate(568,285)"/>
<path d="M0 0 C4.06153846 6.4 4.06153846 6.4 3.75 9.4375 C3.5025 9.953125 3.255 10.46875 3 11 C2.01 11 1.02 11 0 11 C-1.38671875 9.57421875 -1.38671875 9.57421875 -2.6875 7.6875 C-3.12449219 7.07261719 -3.56148438 6.45773437 -4.01171875 5.82421875 C-5 4 -5 4 -5 1 C-3 0 -3 0 0 0 Z " fill="#1A1A19" transform="translate(466,352)"/>
<path d="M0 0 C1.75 0.0625 1.75 0.0625 4 1 C6.00840495 3.70049044 8 6.55126733 8 10 C6.68 10.33 5.36 10.66 4 11 C3.13050683 9.92892883 2.27985795 8.84254056 1.4375 7.75 C0.96183594 7.14671875 0.48617187 6.5434375 -0.00390625 5.921875 C-1 4 -1 4 -0.65234375 1.765625 C-0.43707031 1.18296875 -0.22179687 0.6003125 0 0 Z " fill="#181615" transform="translate(513,320)"/>
<path d="M0 0 C1.75 0.125 1.75 0.125 4 1 C6.25 4.0625 6.25 4.0625 8 7 C7.34 8.32 6.68 9.64 6 11 C5.01 11 4.02 11 3 11 C-1.06153846 4.6 -1.06153846 4.6 -0.75 1.5625 C-0.5025 1.046875 -0.255 0.53125 0 0 Z " fill="#1E1E1C" transform="translate(540,303)"/>
<path d="M0 0 C2.68690776 1.08830179 3.10538261 2.26836088 4.265625 4.87890625 C4.60078125 5.61238281 4.9359375 6.34585937 5.28125 7.1015625 C5.52359375 7.66746094 5.7659375 8.23335938 6.015625 8.81640625 C4.365625 9.47640625 2.715625 10.13640625 1.015625 10.81640625 C0.17684045 9.52827283 -0.65524283 8.23577369 -1.484375 6.94140625 C-1.9484375 6.22210938 -2.4125 5.5028125 -2.890625 4.76171875 C-3.984375 2.81640625 -3.984375 2.81640625 -3.984375 0.81640625 C-1.984375 -0.18359375 -1.984375 -0.18359375 0 0 Z " fill="#171715" transform="translate(548.984375,299.18359375)"/>
<path d="M0 0 C2.625 0.375 2.625 0.375 5 1 C6.125 5.75 6.125 5.75 5 8 C2.69 7.67 0.38 7.34 -2 7 C-2.125 4.625 -2.125 4.625 -2 2 C-1.34 1.34 -0.68 0.68 0 0 Z " fill="#121110" transform="translate(319,444)"/>
<path d="M0 0 C4.04131267 1.34710422 4.90288434 3.38428334 7 7 C7 7.99 7 8.98 7 10 C5.68 10.33 4.36 10.66 3 11 C2.15801693 9.90241493 1.32669329 8.79664683 0.5 7.6875 C0.0359375 7.07261719 -0.428125 6.45773437 -0.90625 5.82421875 C-2 4 -2 4 -2 1 C-1.34 0.67 -0.68 0.34 0 0 Z " fill="#1C1B1A" transform="translate(430,373)"/>
<path d="M0 0 C2.63924282 1.75949522 3.6809084 3.54273721 5.0625 6.375 C5.0625 7.365 5.0625 8.355 5.0625 9.375 C3.7425 9.705 2.4225 10.035 1.0625 10.375 C0.22051693 9.27741493 -0.61080671 8.17164683 -1.4375 7.0625 C-1.9015625 6.44761719 -2.365625 5.83273437 -2.84375 5.19921875 C-3.9375 3.375 -3.9375 3.375 -3.9375 0.375 C-1.9375 -0.625 -1.9375 -0.625 0 0 Z " fill="#1B1A1A" transform="translate(471.9375,348.625)"/>
<path d="M0 0 C3.09998746 0.33214151 4.0545012 1.0545012 6.3125 3.3125 C8 6 8 6 7.9375 8.25 C7 10 7 10 4 11 C3.13341385 9.73760288 2.28207941 8.46472499 1.4375 7.1875 C0.72400391 6.12595703 0.72400391 6.12595703 -0.00390625 5.04296875 C-1 3 -1 3 0 0 Z " fill="#151514" transform="translate(526,312)"/>
<path d="M0 0 C2.33524782 2.25740623 4.18705073 4.2805761 6 7 C5.625 9.1875 5.625 9.1875 5 11 C3.25 10.875 3.25 10.875 1 10 C-1.3125 7.125 -1.3125 7.125 -3 4 C-2.67 3.01 -2.34 2.02 -2 1 C-1.34 0.67 -0.68 0.34 0 0 Z " fill="#131413" transform="translate(555,294)"/>
<path d="M0 0 C1.75 0.125 1.75 0.125 4 1 C6.3125 3.875 6.3125 3.875 8 7 C7.67 7.99 7.34 8.98 7 10 C6.01 10.33 5.02 10.66 4 11 C3.13050683 9.92892883 2.27985795 8.84254056 1.4375 7.75 C0.96183594 7.14671875 0.48617188 6.5434375 -0.00390625 5.921875 C-1 4 -1 4 -0.65234375 1.765625 C-0.43707031 1.18296875 -0.22179687 0.6003125 0 0 Z " fill="#171716" transform="translate(436,369)"/>
<path d="M0 0 C1.32 0 2.64 0 4 0 C8.03255485 4.79547063 8.03255485 4.79547063 7.9375 8.3125 C7 10 7 10 4 11 C3.13341385 9.73760288 2.28207941 8.46472499 1.4375 7.1875 C0.72400391 6.12595703 0.72400391 6.12595703 -0.00390625 5.04296875 C-1 3 -1 3 0 0 Z " fill="#1A1A19" transform="translate(442,365)"/>
<path d="M0 0 C3.32368224 1.10789408 3.61563093 1.48436217 5.25 4.375 C5.60578125 4.98085938 5.9615625 5.58671875 6.328125 6.2109375 C7 8 7 8 6 11 C4.25 10.875 4.25 10.875 2 10 C-0.25 6.9375 -0.25 6.9375 -2 4 C-1.34 2.68 -0.68 1.36 0 0 Z " fill="#1F1D1D" transform="translate(450,360)"/>
<path d="M0 0 C1.2890625 1.6796875 1.2890625 1.6796875 2.625 3.875 C3.29402344 4.95394531 3.29402344 4.95394531 3.9765625 6.0546875 C5 8 5 8 5 10 C3.35 10.33 1.7 10.66 0 11 C-4 5.5 -4 5.5 -4 1 C-2 0 -2 0 0 0 Z " fill="#1C1B1A" transform="translate(459,356)"/>
<path d="M0 0 C4.42679007 1.47559669 4.91432696 3.90057368 7 8 C7 8.66 7 9.32 7 10 C5.68 10.33 4.36 10.66 3 11 C2.15801693 9.90241493 1.32669329 8.79664683 0.5 7.6875 C0.0359375 7.07261719 -0.428125 6.45773437 -0.90625 5.82421875 C-2 4 -2 4 -2 1 C-1.34 0.67 -0.68 0.34 0 0 Z " fill="#1F1F1E" transform="translate(507,324)"/>
<path d="M0 0 C0.99 0 1.98 0 3 0 C4.65 2.97 6.3 5.94 8 9 C7.34 9.66 6.68 10.32 6 11 C5.01 11 4.02 11 3 11 C-1.06153846 4.6 -1.06153846 4.6 -0.75 1.5625 C-0.5025 1.046875 -0.255 0.53125 0 0 Z " fill="#121211" transform="translate(520,316)"/>
<path d="M0 0 C3.32368224 1.10789408 3.61563093 1.48436217 5.25 4.375 C5.60578125 4.98085938 5.9615625 5.58671875 6.328125 6.2109375 C7 8 7 8 6 11 C4.25 10.875 4.25 10.875 2 10 C-2 4.88888889 -2 4.88888889 -2 1 C-1.34 0.67 -0.68 0.34 0 0 Z " fill="#10100F" transform="translate(561,290)"/>
<path d="M0 0 C-0.33 1.65 -0.66 3.3 -1 5 C-1.57524414 5.08628662 -2.15048828 5.17257324 -2.74316406 5.26147461 C-5.64004615 6.20944825 -6.98334702 7.64205945 -9.109375 9.81640625 C-10.24052734 10.96206055 -10.24052734 10.96206055 -11.39453125 12.13085938 C-12.17183594 12.93330078 -12.94914062 13.73574219 -13.75 14.5625 C-14.54277344 15.36880859 -15.33554687 16.17511719 -16.15234375 17.00585938 C-18.10847046 18.99733778 -20.05725719 20.99547721 -22 23 C-22.66 22.67 -23.32 22.34 -24 22 C-20.90984779 18.86050859 -17.81325304 15.72756243 -14.71044922 12.60058594 C-13.65525491 11.5353174 -12.60186036 10.46826303 -11.55029297 9.39941406 C-10.04080273 7.86573784 -8.52501301 6.33854432 -7.0078125 4.8125 C-6.09660645 3.89082031 -5.18540039 2.96914063 -4.24658203 2.01953125 C-2 0 -2 0 0 0 Z " fill="#1E201E" transform="translate(501,431)"/>
<path d="M0 0 C2.33524782 2.25740623 4.18705073 4.2805761 6 7 C5.625 9.1875 5.625 9.1875 5 11 C3.25 10.875 3.25 10.875 1 10 C-1.3125 7.125 -1.3125 7.125 -3 4 C-2.67 3.01 -2.34 2.02 -2 1 C-1.34 0.67 -0.68 0.34 0 0 Z " fill="#141313" transform="translate(424,377)"/>
<path d="M0 0 C1.859375 0.24609375 1.859375 0.24609375 4 1 C5.265625 2.84765625 5.265625 2.84765625 6.25 5.0625 C6.75273437 6.16271484 6.75273437 6.16271484 7.265625 7.28515625 C7.50796875 7.85105469 7.7503125 8.41695313 8 9 C6.02 9.99 6.02 9.99 4 11 C3.13050683 9.92892883 2.27985795 8.84254056 1.4375 7.75 C0.96183594 7.14671875 0.48617188 6.5434375 -0.00390625 5.921875 C-1 4 -1 4 -0.65234375 1.765625 C-0.43707031 1.18296875 -0.22179687 0.6003125 0 0 Z " fill="#1B1A19" transform="translate(476,344)"/>
<path d="M0 0 C2.33524782 2.25740623 4.18705073 4.2805761 6 7 C5.625 9.1875 5.625 9.1875 5 11 C4.01 11 3.02 11 2 11 C0.35 8.03 -1.3 5.06 -3 2 C-2.01 1.34 -1.02 0.68 0 0 Z " fill="#161616" transform="translate(417,381)"/>
<path d="M0 0 C0.495 0.99 0.495 0.99 1 2 C0.20303711 2.0093457 -0.59392578 2.01869141 -1.41503906 2.02832031 C-5.02732175 2.08201498 -8.63830821 2.16566608 -12.25 2.25 C-14.13138672 2.27126953 -14.13138672 2.27126953 -16.05078125 2.29296875 C-17.25605469 2.32519531 -18.46132813 2.35742188 -19.703125 2.390625 C-20.81333008 2.41157227 -21.92353516 2.43251953 -23.06738281 2.45410156 C-26.57679666 3.10736907 -27.77350792 4.28083733 -30 7 C-30.99 6.67 -31.98 6.34 -33 6 C-30.3950699 2.93424688 -28.8646234 1.18169671 -24.86206055 0.34057617 C-23.14176636 0.3170105 -23.14176636 0.3170105 -21.38671875 0.29296875 C-20.13955078 0.26396484 -18.89238281 0.23496094 -17.60742188 0.20507812 C-16.31384766 0.19927734 -15.02027344 0.19347656 -13.6875 0.1875 C-11.71813477 0.14979492 -11.71813477 0.14979492 -9.70898438 0.11132812 C-6.47235511 0.05248032 -3.23707782 0.01618063 0 0 Z " fill="#D1D2D3" transform="translate(540,408)"/>
<path d="M0 0 C1.67223853 2.15002097 3.16753165 4.28145317 4.5625 6.625 C5.91692163 9.07611371 5.91692163 9.07611371 8 11 C6.68 11 5.36 11 4 11 C3.67 12.32 3.34 13.64 3 15 C1.68 14.67 0.36 14.34 -1 14 C-0.01 13.67 0.98 13.34 2 13 C1.39102647 9.44765442 0.54266151 6.2668126 -1 3 C-1.66 2.67 -2.32 2.34 -3 2 C-2.01 2 -1.02 2 0 2 C0 1.34 0 0.68 0 0 Z " fill="#DEDDDD" transform="translate(467,349)"/>
<path d="M0 0 C2.76894919 3.23044072 4.46635209 6.05633394 6 10 C6.66 10.33 7.32 10.66 8 11 C6.1875 12.5625 6.1875 12.5625 4 14 C3.01 13.67 2.02 13.34 1 13 C1.66 12.34 2.32 11.68 3 11 C2.38125 9.88625 1.7625 8.7725 1.125 7.625 C0.77695312 6.99851562 0.42890625 6.37203125 0.0703125 5.7265625 C-1.00897274 3.8387386 -1.00897274 3.8387386 -3 2 C-2.01 1.34 -1.02 0.68 0 0 Z " fill="#DEDEDD" transform="translate(551,296)"/>
<path d="M0 0 C4 5 4 5 8 10 C6.68 10.99 5.36 11.98 4 13 C3.34 12.67 2.68 12.34 2 12 C1.6550855 10.66961551 1.32483418 9.33542939 1 8 C0.03112419 5.98473831 -0.9641321 3.98166034 -2 2 C-1.34 2 -0.68 2 0 2 C0 1.34 0 0.68 0 0 Z " fill="#DAD9D9" transform="translate(420,379)"/>
<path d="M0 0 C2.12038635 2.61514317 4.13091744 5.19637616 6 8 C8.05925139 8.72382467 8.05925139 8.72382467 10 9 C9 10 9 10 6.4375 10.0625 C5.633125 10.041875 4.82875 10.02125 4 10 C3.67 10.66 3.34 11.32 3 12 C1.02 8.37 -0.96 4.74 -3 1 C-2.01 0.67 -1.02 0.34 0 0 Z " fill="#DCDCDB" transform="translate(511,322)"/>
<path d="M0 0 C1.67542976 0.28604898 3.34385343 0.61781233 5 1 C5 2.65 5 4.3 5 6 C2.625 6.625 2.625 6.625 0 7 C-0.66 6.34 -1.32 5.68 -2 5 C-1.46428571 1.46428571 -1.46428571 1.46428571 0 0 Z " fill="#141313" transform="translate(536,222)"/>
<path d="M0 0 C0.66 0.33 1.32 0.66 2 1 C1.16855469 1.77923828 1.16855469 1.77923828 0.3203125 2.57421875 C-0.76636719 3.62029297 -0.76636719 3.62029297 -1.875 4.6875 C-2.95394531 5.71423828 -2.95394531 5.71423828 -4.0546875 6.76171875 C-6.40520342 9.21853348 -6.40520342 9.21853348 -8 14 C-4.37 14 -0.74 14 3 14 C3 14.33 3 14.66 3 15 C-0.96 15 -4.92 15 -9 15 C-8.62948535 8.82475589 -7.18618232 6.28585333 -3 2 C-2.01 1.34 -1.02 0.68 0 0 Z " fill="#BCBBBB" transform="translate(230,578)"/>
<path d="M0 0 C2.95749791 3.46741134 5.07848152 6.86873527 7 11 C5.35 11.66 3.7 12.32 2 13 C1.9175 12.29875 1.835 11.5975 1.75 10.875 C0.82972275 7.34727053 -0.88126977 4.93888386 -3 2 C-2.01 2 -1.02 2 0 2 C0 1.34 0 0.68 0 0 Z " fill="#D4D3D2" transform="translate(531,309)"/>
<path d="M0 0 C2.95064148 -0.2208564 5.68368231 -0.28060989 8.625 -0.1875 C9.42679688 -0.17396484 10.22859375 -0.16042969 11.0546875 -0.14648438 C13.03674378 -0.11109051 15.01845551 -0.05728234 17 0 C16.67 0.99 16.34 1.98 16 3 C10 3 4 3 -2 3 C-1.34 2.01 -0.68 1.02 0 0 Z " fill="#B6B6B7" transform="translate(623,576)"/>
<path d="M0 0 C1.69013326 2.17302848 3.15525986 4.27817391 4.5 6.6875 C5.85099122 9.2968972 5.85099122 9.2968972 9 10 C8.195625 10.12375 7.39125 10.2475 6.5625 10.375 C5.716875 10.58125 4.87125 10.7875 4 11 C3.67 11.66 3.34 12.32 3 13 C1.35 9.7 -0.3 6.4 -2 3 C-1.34 3 -0.68 3 0 3 C0 2.01 0 1.02 0 0 Z " fill="#DADADA" transform="translate(434,370)"/>
<path d="M0 0 C2.7075671 3.15882829 4.95539675 5.92604733 6 10 C5.125 12.3125 5.125 12.3125 4 14 C3.34 13.67 2.68 13.34 2 13 C2 11.68 2 10.36 2 9 C0.557628 6.24638072 -0.80040399 4.19959601 -3 2 C-2.01 2 -1.02 2 0 2 C0 1.34 0 0.68 0 0 Z " fill="#E1E1E1" transform="translate(544,300)"/>
<path d="M0 0 C0 0.33 0 0.66 0 1 C-1.65 1.33 -3.3 1.66 -5 2 C-5.0825 2.61875 -5.165 3.2375 -5.25 3.875 C-5.4975 4.57625 -5.745 5.2775 -6 6 C-6.66 6.309375 -7.32 6.61875 -8 6.9375 C-8.99 7.4634375 -8.99 7.4634375 -10 8 C-10.81171228 10.55519921 -10.81171228 10.55519921 -11 13 C-11.33 13 -11.66 13 -12 13 C-12.60356653 5.87791495 -12.60356653 5.87791495 -9.9375 2 C-6.35342568 -0.44022082 -4.25018379 -0.41668469 0 0 Z " fill="#DCDBDC" transform="translate(400,475)"/>
<path d="M0 0 C2.76894919 3.23044072 4.46635209 6.05633394 6 10 C6.66 10.33 7.32 10.66 8 11 C6.68 11.33 5.36 11.66 4 12 C3.16094435 10.87926138 2.32892169 9.75325453 1.5 8.625 C1.0359375 7.99851562 0.571875 7.37203125 0.09375 6.7265625 C-1 5 -1 5 -1 3 C-1.66 2.67 -2.32 2.34 -3 2 C-2.01 2 -1.02 2 0 2 C0 1.34 0 0.68 0 0 Z " fill="#D7D6D5" transform="translate(524,313)"/>
<path d="M0 0 C0.66 0.66 1.32 1.32 2 2 C0.7625 2.0825 -0.475 2.165 -1.75 2.25 C-4.70588266 2.6319105 -5.92403793 2.94741088 -8.4375 4.6875 C-10.31457921 7.46557723 -10.69892456 9.6881702 -11 13 C-11.33 13 -11.66 13 -12 13 C-12.29795219 10.07013677 -12.50687865 7.85647239 -12 5 C-8.33432448 0.81065655 -5.58929305 -0.88920571 0 0 Z " fill="#D7D6D6" transform="translate(400,436)"/>
<path d="M0 0 C4.62 0 9.24 0 14 0 C13.67 1.32 13.34 2.64 13 4 C13 3.34 13 2.68 13 2 C11.22880197 2.14133499 9.45804713 2.28823208 7.6875 2.4375 C6.20830078 2.55931641 6.20830078 2.55931641 4.69921875 2.68359375 C1.90624401 2.91812559 1.90624401 2.91812559 -1 4 C-0.67 2.68 -0.34 1.36 0 0 Z " fill="#B4B4B5" transform="translate(567,609)"/>
<path d="M0 0 C-1.06422726 2.48319694 -1.84325984 3.87754675 -4 5.5625 C-7.19362956 9.45473603 -7.3588327 14.10688114 -8 19 C-8.33 19 -8.66 19 -9 19 C-9.55934831 11.13804878 -8.63943785 7.19935136 -3.375 1.125 C-2 0 -2 0 0 0 Z " fill="#CBCBC9" transform="translate(228,601)"/>
<path d="M0 0 C0.66 0.33 1.32 0.66 2 1 C-2.29 5.29 -6.58 9.58 -11 14 C-11.66 13.67 -12.32 13.34 -13 13 C-4.738041 3.40546697 -4.738041 3.40546697 0 0 Z " fill="#282A29" transform="translate(281,272)"/>
<path d="M0 0 C1.94268841 2.91403262 3.46395304 5.85808576 5 9 C4.01 9.66 3.02 10.32 2 11 C1.0234375 9.2421875 0.046875 7.484375 -0.9296875 5.7265625 C-2.00897274 3.8387386 -2.00897274 3.8387386 -4 2 C-2.68 2 -1.36 2 0 2 C0 1.34 0 0.68 0 0 Z " fill="#D6D4D4" transform="translate(518,317)"/>
<path d="M0 0 C0.66 0 1.32 0 2 0 C0.94282781 2.19566532 -0.08542555 4.11276173 -1.5625 6.0625 C-3.74186081 10.51597643 -3.75110387 15.09932097 -4 20 C-4.33 20 -4.66 20 -5 20 C-5.68903554 7.09972357 -5.68903554 7.09972357 -3.0625 3.25 C-1 1 -1 1 0 0 Z " fill="#393B3B" transform="translate(549,589)"/>
<path d="M0 0 C2.6348519 2.45919511 4.74516551 4.57772411 6 8 C5.67 8.66 5.34 9.32 5 10 C2 9 2 9 0.25 6.6875 C-1 4 -1 4 -0.6875 1.6875 C-0.460625 1.130625 -0.23375 0.57375 0 0 Z " fill="#E2E1E1" transform="translate(460,354)"/>
<path d="M0 0 C2.32472205 2.85306797 3.7508258 5.54074837 5 9 C4.01 9.33 3.02 9.66 2 10 C-0.475 6.04 -0.475 6.04 -3 2 C-2.01 2 -1.02 2 0 2 C0 1.34 0 0.68 0 0 Z " fill="#E3E1E2" transform="translate(474,345)"/>
<path d="M0 0 C0.66 0.33 1.32 0.66 2 1 C-1.63 4.63 -5.26 8.26 -9 12 C-9.66 11.67 -10.32 11.34 -11 11 C-9.73347137 9.53792657 -8.46161082 8.08047074 -7.1875 6.625 C-6.47980469 5.81289062 -5.77210938 5.00078125 -5.04296875 4.1640625 C-3 2 -3 2 0 0 Z " fill="#2B2C2B" transform="translate(375,191)"/>
<path d="M0 0 C0.66 0.495 1.32 0.99 2 1.5 C5.96633241 3.48316621 8.60303262 3.22357461 13 3 C13 3.66 13 4.32 13 5 C9.65559323 5.58718592 6.40060685 6.05863115 3 6 C0.375 4.0625 0.375 4.0625 -1 2 C-0.67 1.34 -0.34 0.68 0 0 Z " fill="#222221" transform="translate(313,481)"/>
<path d="M0 0 C0 0.33 0 0.66 0 1 C-0.886875 1.226875 -1.77375 1.45375 -2.6875 1.6875 C-6.43380532 3.17188513 -8.33729434 5.02403485 -11 8 C-11.66 7.67 -12.32 7.34 -13 7 C-12.04578192 5.85073734 -11.08647955 4.70569459 -10.125 3.5625 C-9.59132813 2.92441406 -9.05765625 2.28632813 -8.5078125 1.62890625 C-5.63159679 -1.47830088 -3.90872378 -0.92575037 0 0 Z " fill="#CECFCF" transform="translate(288,284)"/>
<path d="M0 0 C0 0.99 0 1.98 0 3 C0.33 3.99 0.66 4.98 1 6 C-0.65 6.66 -2.3 7.32 -4 8 C-4 7.01 -4 6.02 -4 5 C-4.66 4.34 -5.32 3.68 -6 3 C-4.02 2.01 -2.04 1.02 0 0 Z " fill="#252625" transform="translate(505,202)"/>
<path d="M0 0 C1.46535356 0.02652224 2.93044676 0.07413383 4.39453125 0.140625 C5.14412109 0.15867187 5.89371094 0.17671875 6.66601562 0.1953125 C8.51356835 0.24238391 10.36046284 0.31412734 12.20703125 0.390625 C12.20703125 0.720625 12.20703125 1.050625 12.20703125 1.390625 C11.23121094 1.42800781 10.25539063 1.46539062 9.25 1.50390625 C7.34154297 1.60251953 7.34154297 1.60251953 5.39453125 1.703125 C3.49767578 1.79013672 3.49767578 1.79013672 1.5625 1.87890625 C-1.75900568 2.1019744 -1.75900568 2.1019744 -3.7421875 3.93359375 C-4.08894531 4.41441406 -4.43570312 4.89523437 -4.79296875 5.390625 C-5.45296875 5.060625 -6.11296875 4.730625 -6.79296875 4.390625 C-4.98264994 0.75567657 -4.13480698 0.42582976 0 0 Z " fill="#131312" transform="translate(409.79296875,448.609375)"/>
<path d="M0 0 C4 4.75 4 4.75 4 7 C4.66 7.33 5.32 7.66 6 8 C5.01 8 4.02 8 3 8 C3 8.66 3 9.32 3 10 C1 9 1 9 -0.1875 6.125 C-1 3 -1 3 0 0 Z " fill="#E1E0E1" transform="translate(442,369)"/>
<path d="M0 0 C1.54571278 2.31856917 2.79618552 4.50638429 4 7 C3.01 7.66 2.02 8.32 1 9 C-0.98 5.535 -0.98 5.535 -3 2 C-2.34 2 -1.68 2 -1 2 C-0.67 1.34 -0.34 0.68 0 0 Z " fill="#DBDBDB" transform="translate(565,287)"/>
<path d="M0 0 C0.66 0.33 1.32 0.66 2 1 C-0.97 3.97 -3.94 6.94 -7 10 C-7 6.04435836 -5.59478606 4.89133304 -3 2 C-2.01 1.34 -1.02 0.68 0 0 Z " fill="#D0D2D4" transform="translate(564,341)"/>
<path d="M0 0 C1.5625 1.75 1.5625 1.75 3 4 C2.6875 6.25 2.6875 6.25 2 8 C1.34 8 0.68 8 0 8 C-0.99 6.02 -1.98 4.04 -3 2 C-2.34 2 -1.68 2 -1 2 C-0.67 1.34 -0.34 0.68 0 0 Z " fill="#E1DFDF" transform="translate(482,342)"/>
<path d="M0 0 C-0.28875 0.53625 -0.5775 1.0725 -0.875 1.625 C-2.16711808 4.35280484 -3.08558592 7.12612718 -4 10 C-4.66 9.34 -5.32 8.68 -6 8 C-5.77870194 5.12312519 -5.36521506 3.46048856 -3.5625 1.1875 C-2 0 -2 0 0 0 Z " fill="#CBCACA" transform="translate(328,206)"/>
<path d="M0 0 C0.66 0.33 1.32 0.66 2 1 C-0.64 3.64 -3.28 6.28 -6 9 C-6.33 8.34 -6.66 7.68 -7 7 C-4.78071806 4.09197539 -3.07030857 2.04687238 0 0 Z " fill="#D5D6D5" transform="translate(480,600)"/>
<path d="M0 0 C2.2477975 2.05233685 3.0022242 3.00667261 4 6 C3.01 6.33 2.02 6.66 1 7 C-2 3.25 -2 3.25 -2 1 C-1.34 0.67 -0.68 0.34 0 0 Z " fill="#DCDCDD" transform="translate(428,377)"/>
<path d="M0 0 C1.98 0.495 1.98 0.495 4 1 C4 1.66 4 2.32 4 3 C3.34 3 2.68 3 2 3 C1.67 4.32 1.34 5.64 1 7 C-1 4 -1 4 -0.625 1.8125 C-0.41875 1.214375 -0.2125 0.61625 0 0 Z " fill="#242322" transform="translate(513,320)"/>
<path d="M0 0 C3.66881155 0.70554068 6.70450534 2.27735506 10 4 C9.01 4.33 8.02 4.66 7 5 C6.34 4.67 5.68 4.34 5 4 C4.67 4.66 4.34 5.32 4 6 C2.68 4.02 1.36 2.04 0 0 Z " fill="#D1D1D2" transform="translate(403,240)"/>
<path d="M0 0 C1.50433594 0.01353516 1.50433594 0.01353516 3.0390625 0.02734375 C3.80992187 0.03894531 4.58078125 0.05054688 5.375 0.0625 C5.375 0.3925 5.375 0.7225 5.375 1.0625 C4.78332031 1.11148438 4.19164062 1.16046875 3.58203125 1.2109375 C-0.81604472 1.62706867 -4.59428897 2.11215595 -8.625 4.0625 C-8.295 3.0725 -7.965 2.0825 -7.625 1.0625 C-4.98041621 -0.25979189 -2.94738699 -0.03427194 0 0 Z " fill="#272626" transform="translate(244.625,586.9375)"/>
<path d="M0 0 C1.5625 1.125 1.5625 1.125 3 3 C2.6875 6.1875 2.6875 6.1875 2 9 C1.01 9 0.02 9 -1 9 C-0.67 8.67 -0.34 8.34 0 8 C0.04384447 6.33391013 0.0396713 4.66619446 0 3 C0 2.01 0 1.02 0 0 Z " fill="#D2D0D3" transform="translate(400,479)"/>
<path d="M0 0 C0.598125 0.226875 1.19625 0.45375 1.8125 0.6875 C0.8225 0.6875 -0.1675 0.6875 -1.1875 0.6875 C-1.435 1.285625 -1.6825 1.88375 -1.9375 2.5 C-3.35120012 4.97397521 -4.83805383 6.12120255 -7.1875 7.6875 C-4.27205882 -0.61029412 -4.27205882 -0.61029412 0 0 Z " fill="#D2D2D1" transform="translate(417.1875,230.3125)"/>
<path d="M0 0 C0.66 0.33 1.32 0.66 2 1 C2 1.66 2 2.32 2 3 C0.03852126 4.38938077 -1.96166576 5.7260411 -4 7 C-4 4 -4 4 -2 1.8125 C-1.34 1.214375 -0.68 0.61625 0 0 Z " fill="#232726" transform="translate(610,607)"/>
<path d="M0 0 C-1.15173355 2.46800047 -2.04783565 4.04783565 -4 6 C-4.99 5.67 -5.98 5.34 -7 5 C-2.25 0 -2.25 0 0 0 Z " fill="#C0C0C1" transform="translate(514,409)"/>
<path d="M0 0 C0.99 1.32 1.98 2.64 3 4 C2.67 4.66 2.34 5.32 2 6 C1.01 5.67 0.02 5.34 -1 5 C-1 4.34 -1 3.68 -1 3 C-1.66 2.67 -2.32 2.34 -3 2 C-2.01 1.34 -1.02 0.68 0 0 Z " fill="#D7D6D6" transform="translate(447,362)"/>
<path d="M0 0 C1.485 0.99 1.485 0.99 3 2 C3 2.66 3 3.32 3 4 C3.66 4.33 4.32 4.66 5 5 C3.68 5.33 2.36 5.66 1 6 C0.34 4.35 -0.32 2.7 -1 1 C-0.67 0.67 -0.34 0.34 0 0 Z " fill="#E2E0DF" transform="translate(527,319)"/>
<path d="M0 0 C0.99 0.33 1.98 0.66 3 1 C2 3 1 5 0 7 C-2 4 -2 4 -2 1 C-1.34 0.67 -0.68 0.34 0 0 Z " fill="#232322" transform="translate(561,290)"/>
</svg>
